<svg xmlns="http://www.w3.org/2000/svg" xmlns:xlink="http://www.w3.org/1999/xlink" width="500" zoomAndPan="magnify" viewBox="0 0 375 374.999991" height="500" preserveAspectRatio="xMidYMid meet" version="1.0"><defs><clipPath id="8e37eb9428"><path d="M 9.175781 8.609375 L 366.175781 8.609375 L 366.175781 375 L 9.175781 375 Z M 9.175781 8.609375 " clip-rule="nonzero"/></clipPath></defs><rect x="-37.5" width="450" fill="#ffffff" y="-37.499999" height="449.999989" fill-opacity="1"/><rect x="-37.5" width="450" fill="#04182d" y="-37.499999" height="449.999989" fill-opacity="1"/><g clip-path="url(#8e37eb9428)"><path fill="#ffffff" d="M 366.121094 153.65625 L 366.121094 187.785156 C 366.121094 203.464844 353.414062 216.222656 337.792969 216.222656 C 322.171875 216.222656 309.460938 203.460938 309.460938 187.785156 L 309.460938 162.914062 C 309.445312 162.632812 309.300781 162.398438 309.300781 162.113281 C 309.300781 93.152344 254.652344 37.046875 187.476562 37.046875 C 121.851562 37.046875 68.328125 90.628906 65.886719 157.40625 L 65.886719 193.472656 C 65.886719 212.292969 81.140625 227.601562 99.886719 227.601562 C 106.144531 227.601562 111.21875 232.695312 111.21875 238.976562 C 111.21875 245.261719 106.144531 250.351562 99.886719 250.351562 C 76.011719 250.351562 55.640625 235.402344 47.308594 214.378906 C 44.253906 215.511719 41 216.222656 37.558594 216.222656 C 21.933594 216.226562 9.226562 203.464844 9.226562 187.785156 L 9.226562 153.65625 C 9.226562 137.972656 21.933594 125.214844 37.558594 125.214844 C 39.003906 125.214844 40.394531 125.433594 41.785156 125.644531 C 57.863281 58.582031 116.992188 8.609375 187.476562 8.609375 C 257.976562 8.609375 317.117188 58.597656 333.179688 125.683594 C 334.6875 125.433594 336.210938 125.214844 337.792969 125.214844 C 353.414062 125.214844 366.121094 137.976562 366.121094 153.65625 Z M 280.898438 162.117188 C 280.898438 110.324219 239.070312 68.335938 187.476562 68.335938 C 135.882812 68.335938 94.0625 110.324219 94.0625 162.117188 C 94.0625 213.910156 135.882812 255.898438 187.476562 255.898438 C 239.070312 255.898438 280.898438 213.910156 280.898438 162.117188 Z M 280.476562 284.339844 L 247.214844 284.339844 C 239.8125 284.339844 232.875 287.96875 228.636719 294.0625 L 205.382812 327.472656 C 196.289062 340.542969 176.972656 340.414062 168.054688 327.222656 L 145.792969 294.308594 C 141.574219 288.074219 134.550781 284.335938 127.042969 284.335938 L 94.382812 284.335938 C 52.316406 284.335938 18.214844 318.570312 18.214844 360.800781 L 18.214844 394.730469 C 18.214844 401.015625 23.289062 406.105469 29.550781 406.105469 L 345.308594 406.105469 C 351.566406 406.105469 356.640625 401.011719 356.640625 394.730469 L 356.640625 360.800781 C 356.640625 318.570312 322.539062 284.339844 280.476562 284.339844 Z M 280.476562 284.339844 " fill-opacity="1" fill-rule="nonzero"/></g></svg>