<svg xmlns="http://www.w3.org/2000/svg" xmlns:xlink="http://www.w3.org/1999/xlink" width="150" zoomAndPan="magnify" viewBox="0 0 375 190.499994" preserveAspectRatio="xMidYMid meet" version="1.0"><defs><g/></defs><path stroke-linecap="butt" transform="matrix(1.373091, 0, 0, 1.373091, 0.490843, 11.224337)" fill="none" stroke-linejoin="miter" d="M 38.679681 75.999182 L 13.551042 75.999182 L 13.551042 69.353592 L 20.273444 66.258385 L 20.273444 30.538336 L 13.551042 27.44313 L 13.551042 20.777625 L 38.679681 20.777625 L 38.679681 27.44313 L 31.960124 30.538336 L 31.960124 66.258385 L 38.679681 69.353592 Z M 26.313079 4.24046 C 28.014305 4.24046 29.479407 4.641585 30.714076 5.44668 C 31.9459 6.240396 32.563234 7.719723 32.563234 9.88466 C 32.563234 11.998391 31.9459 13.472028 30.714076 14.302726 C 29.479407 15.119201 28.014305 15.528861 26.313079 15.528861 C 24.552112 15.528861 23.067095 15.119201 21.85803 14.302726 C 20.648965 13.472028 20.045855 11.998391 20.045855 9.88466 C 20.045855 7.719723 20.648965 6.240396 21.85803 5.44668 C 23.067095 4.641585 24.552112 4.24046 26.313079 4.24046 Z M 26.313079 4.24046 " stroke="#ffffff" stroke-width="1.401668" stroke-opacity="1" stroke-miterlimit="4"/><g fill="#ffde59" fill-opacity="1"><g transform="translate(229.357382, 43.015677)"><g><path d="M -14.679688 74.457031 C -7.761719 74.457031 -4.195312 70.050781 -4.195312 63.339844 L -4.195312 10.066406 C -4.195312 3.566406 -7.761719 -1.046875 -14.679688 -1.046875 C -21.601562 -1.046875 -25.167969 3.566406 -25.167969 10.066406 L -25.167969 63.339844 C -25.167969 70.050781 -21.601562 74.457031 -14.679688 74.457031 Z M -14.679688 74.457031 "/></g></g></g><g fill="#5ce1e6" fill-opacity="1"><g transform="translate(62.769771, 116.426261)"><g><path d="M 14.847656 -75.308594 C 7.847656 -75.308594 4.242188 -70.855469 4.242188 -64.066406 L 4.242188 -10.183594 C 4.242188 -3.605469 7.847656 1.0625 14.847656 1.0625 C 21.851562 1.0625 25.457031 -3.605469 25.457031 -10.183594 L 25.457031 -64.066406 C 25.457031 -70.855469 21.851562 -75.308594 14.847656 -75.308594 Z M 14.847656 -75.308594 "/></g></g></g><g fill="#ff8bd2" fill-opacity="1"><g transform="translate(289.505727, 129.096406)"><g><path d="M 55.917969 -64.015625 C 49.203125 -67.890625 43.277344 -65.613281 39.523438 -59.101562 L 9.703125 -7.417969 C 6.066406 -1.109375 6.941406 5.359375 13.65625 9.234375 C 20.371094 13.109375 26.414062 10.628906 30.050781 4.320312 L 59.867188 -47.363281 C 63.625 -53.871094 62.632812 -60.140625 55.917969 -64.015625 Z M 55.917969 -64.015625 "/></g></g></g><path stroke-linecap="butt" transform="matrix(1.373091, 0, 0, 1.373091, 61.315851, 11.224337)" fill="none" stroke-linejoin="miter" d="M 11.593205 21.099094 C 5.872193 21.099094 3.095611 24.646634 3.095611 30.06609 L 3.095611 67.805989 C 3.095611 73.225445 5.872193 76.772984 11.593205 76.772984 C 17.331285 76.772984 20.107868 73.225445 20.107868 67.805989 L 20.107868 56.517588 L 25.976812 56.517588 L 39.589462 73.527 C 41.137065 75.526936 43.612092 76.772984 46.235052 76.772984 C 50.729929 76.772984 54.44816 73.054753 54.44816 68.429013 C 54.44816 66.55994 53.825136 64.710782 52.579088 63.163179 L 41.287842 48.927505 L 52.579088 34.711744 C 53.825136 33.161296 54.44816 31.312138 54.44816 29.443066 C 54.44816 24.800256 50.729929 21.099094 46.235052 21.099094 C 43.933561 21.099094 41.287842 22.174451 39.589462 24.345078 L 25.976812 41.357335 L 20.107868 41.357335 L 20.107868 30.06609 C 20.107868 24.646634 17.331285 21.099094 11.593205 21.099094 Z M 78.416096 50.022775 C 82.114413 50.022775 84.287885 52.645735 84.287885 56.668366 C 84.287885 60.688151 82.114413 63.313956 78.416096 63.313956 C 74.695021 63.313956 72.544308 60.688151 72.544308 56.668366 C 72.544308 52.645735 74.695021 50.022775 78.416096 50.022775 Z M 78.416096 36.560903 C 64.803446 36.560903 57.062585 45.075566 57.062585 56.668366 C 57.062585 68.258321 64.803446 76.772984 78.416096 76.772984 C 92.025902 76.772984 99.749694 68.258321 99.749694 56.668366 C 99.749694 45.075566 92.025902 36.560903 78.416096 36.560903 Z M 112.426385 21.099094 C 107.328398 21.099094 104.705438 24.345078 104.705438 29.292288 L 104.705438 68.57979 C 104.705438 73.376222 107.328398 76.772984 112.426385 76.772984 C 117.544286 76.772984 120.167246 73.376222 120.167246 68.57979 L 120.167246 29.292288 C 120.167246 24.345078 117.544286 21.099094 112.426385 21.099094 Z M 144.914674 36.560903 C 137.495282 36.560903 132.078671 38.259284 129.285019 39.960509 C 127.905263 40.885088 126.659215 42.904938 126.659215 44.754097 C 126.659215 47.698526 128.980619 50.475108 132.550917 50.475108 C 133.154027 50.475108 133.777052 50.32433 134.400076 50.173553 C 136.721481 49.399751 139.97031 48.153703 143.065516 48.153703 C 145.688476 48.153703 147.463668 49.098196 148.163503 51.021321 C 134.852408 51.493567 125.262389 54.96714 125.262389 65.183029 C 125.262389 72.602421 129.452866 76.772984 136.872258 76.772984 C 143.668626 76.772984 148.012726 73.905366 150.334131 69.202814 L 150.334131 69.655147 C 150.334131 73.999247 152.638466 76.772984 157.130499 76.772984 C 161.625376 76.772984 163.776089 73.999247 163.776089 69.655147 L 163.776089 54.042561 C 163.776089 42.904938 158.055078 36.560903 144.914674 36.560903 Z M 148.388247 60.215905 C 147.861948 63.313956 145.537698 65.183029 143.065516 65.183029 C 141.517913 65.183029 140.744111 64.560005 140.744111 63.313956 C 140.744111 61.9342 142.047057 60.463408 148.388247 60.215905 Z M 175.218112 36.560903 C 171.047549 36.560903 167.647942 40.111287 167.647942 44.301764 C 167.647942 45.678676 168.120189 46.924724 168.723299 48.153703 L 180.014544 69.202814 L 173.670509 80.946392 C 173.067398 82.19244 172.595152 83.267797 172.595152 84.664623 C 172.595152 88.838031 176.162605 92.388415 180.336013 92.388415 C 183.260528 92.388415 185.735555 90.837967 187.132381 88.365784 L 209.259694 48.153703 C 209.862804 46.924724 210.184273 45.678676 210.184273 44.301764 C 210.184273 40.111287 206.61682 36.560903 202.443412 36.560903 C 199.194583 36.560903 196.722401 38.108506 195.647044 40.734311 L 188.830762 56.819143 L 182.185171 40.734311 C 181.109815 38.108506 178.466941 36.560903 175.218112 36.560903 Z M 175.218112 36.560903 " stroke="#ffffff" stroke-width="1.401668" stroke-opacity="1" stroke-miterlimit="4"/><g fill="#ffffff" fill-opacity="1"><g transform="translate(120.040241, 163.627701)"><g><path d="M 12.445312 -25.992188 C 12.410156 -25.992188 12.375 -25.992188 12.375 -25.992188 C 11.347656 -25.992188 10.398438 -25.371094 9.957031 -24.453125 L 0.914062 -3.441406 C 0.730469 -3.039062 0.660156 -2.671875 0.660156 -2.269531 C 0.660156 -0.804688 1.832031 0.367188 3.292969 0.367188 C 4.394531 0.367188 5.308594 -0.109375 5.710938 -1.171875 L 7.542969 -6.148438 L 17.207031 -6.148438 L 19.035156 -1.171875 C 19.4375 -0.109375 20.355469 0.367188 21.453125 0.367188 C 22.917969 0.367188 24.125 -0.804688 24.125 -2.269531 C 24.125 -2.671875 24.015625 -3.039062 23.832031 -3.441406 L 14.789062 -24.453125 C 14.351562 -25.371094 13.472656 -25.957031 12.445312 -25.992188 Z M 15.707031 -10.285156 L 9.078125 -10.285156 L 12.410156 -19.328125 Z M 15.707031 -10.285156 "/></g></g></g><g fill="#ffffff" fill-opacity="1"><g transform="translate(144.713418, 163.627701)"><g><path d="M 6.625 -25.625 L 4.867188 -25.625 C 3.113281 -25.625 2.234375 -24.527344 2.234375 -22.84375 L 2.234375 -2.78125 C 2.234375 -1.097656 3.113281 0 4.867188 0 L 14.714844 0 C 22.003906 0 25.882812 -6.222656 25.882812 -12.8125 C 25.882812 -19.402344 21.929688 -25.625 14.714844 -25.625 Z M 7.542969 -4.757812 L 7.542969 -20.867188 L 13.582031 -20.867188 C 17.828125 -20.867188 20.574219 -17.425781 20.574219 -12.8125 C 20.574219 -8.199219 17.9375 -4.757812 13.582031 -4.757812 Z M 7.542969 -4.757812 "/></g></g></g><g fill="#ffffff" fill-opacity="1"><g transform="translate(172.095522, 163.627701)"><g><path d="M 7.027344 -25.992188 C 5.710938 -25.992188 4.539062 -25.003906 4.394531 -23.6875 L 1.539062 -2.5625 L 1.539062 -2.195312 C 1.539062 -0.695312 2.597656 0.367188 4.101562 0.367188 C 5.492188 0.367188 6.625 -0.621094 6.734375 -2.011719 L 8.714844 -16 L 13.214844 -4.6875 C 13.582031 -3.808594 14.3125 -3.292969 15.449219 -3.292969 C 16.511719 -3.292969 17.351562 -3.734375 17.71875 -4.6875 L 22.183594 -16 L 24.160156 -2.011719 C 24.273438 -0.621094 25.40625 0.367188 26.796875 0.367188 C 28.296875 0.367188 29.359375 -0.769531 29.359375 -2.269531 L 29.359375 -2.5625 L 26.542969 -23.6875 C 26.394531 -25.003906 25.1875 -25.992188 23.867188 -25.992188 C 22.917969 -25.992188 22.039062 -25.554688 21.671875 -24.675781 L 15.484375 -10.324219 L 9.226562 -24.675781 C 8.859375 -25.480469 8.015625 -25.992188 7.027344 -25.992188 Z M 7.027344 -25.992188 "/></g></g></g><g fill="#ffffff" fill-opacity="1"><g transform="translate(202.918691, 163.627701)"><g><path d="M 3 -25.625 C 1.683594 -25.625 0.660156 -24.566406 0.660156 -23.246094 C 0.660156 -21.929688 1.683594 -20.867188 3 -20.867188 L 5.785156 -20.867188 L 5.785156 -4.757812 L 3 -4.757812 C 1.683594 -4.757812 0.660156 -3.699219 0.660156 -2.378906 C 0.660156 -1.0625 1.683594 0 3 0 L 13.875 0 C 15.191406 0 16.253906 -1.0625 16.253906 -2.378906 C 16.253906 -3.699219 15.191406 -4.757812 13.875 -4.757812 L 11.054688 -4.757812 L 11.054688 -20.867188 L 13.875 -20.867188 C 15.191406 -20.867188 16.253906 -21.929688 16.253906 -23.246094 C 16.253906 -24.566406 15.191406 -25.625 13.875 -25.625 Z M 3 -25.625 "/></g></g></g><g fill="#ffffff" fill-opacity="1"><g transform="translate(219.75795, 163.627701)"><g><path d="M 4.867188 -25.957031 C 3.40625 -25.957031 2.234375 -24.820312 2.234375 -23.355469 L 2.234375 -2.269531 C 2.234375 -0.804688 3.40625 0.367188 4.867188 0.367188 C 6.332031 0.367188 7.542969 -0.804688 7.542969 -2.269531 L 7.542969 -16.582031 L 19.183594 -0.585938 C 19.660156 0.0351562 20.429688 0.328125 21.234375 0.328125 C 22.699219 0.328125 23.867188 -0.804688 23.867188 -2.269531 L 23.867188 -23.355469 C 23.867188 -24.820312 22.699219 -25.992188 21.234375 -25.992188 C 19.730469 -25.992188 18.5625 -24.820312 18.5625 -23.355469 L 18.5625 -9.042969 L 6.917969 -25.039062 C 6.441406 -25.664062 5.675781 -25.957031 4.867188 -25.957031 Z M 4.867188 -25.957031 "/></g></g></g></svg>