<svg xmlns="http://www.w3.org/2000/svg" xmlns:xlink="http://www.w3.org/1999/xlink" width="150" zoomAndPan="magnify" viewBox="0 0 187.5 83.999999" preserveAspectRatio="xMidYMid meet" version="1.0"><defs><g/><clipPath id="8de60ab305"><path d="M 5.898438 0.113281 L 21 0.113281 L 21 15 L 5.898438 15 Z M 5.898438 0.113281 " clip-rule="nonzero"/></clipPath><clipPath id="197420da99"><path d="M 6 0.113281 L 23.898438 0.113281 L 23.898438 23 L 6 23 Z M 6 0.113281 " clip-rule="nonzero"/></clipPath><clipPath id="581b477ad3"><path d="M 11 22 L 19 22 L 19 24.113281 L 11 24.113281 Z M 11 22 " clip-rule="nonzero"/></clipPath></defs><g clip-path="url(#8de60ab305)"><path fill="#ffbd59" d="M 20.820312 7.375 C 20.820312 7.851562 20.773438 8.324219 20.679688 8.789062 C 20.582031 9.257812 20.441406 9.710938 20.253906 10.152344 C 20.066406 10.59375 19.839844 11.011719 19.566406 11.410156 C 19.292969 11.804688 18.984375 12.171875 18.640625 12.507812 C 18.292969 12.847656 17.917969 13.148438 17.511719 13.414062 C 17.105469 13.675781 16.675781 13.902344 16.222656 14.082031 C 15.769531 14.265625 15.304688 14.402344 14.824219 14.496094 C 14.34375 14.589844 13.859375 14.636719 13.371094 14.636719 C 12.882812 14.636719 12.398438 14.589844 11.917969 14.496094 C 11.4375 14.402344 10.972656 14.265625 10.519531 14.082031 C 10.066406 13.902344 9.636719 13.675781 9.230469 13.414062 C 8.824219 13.148438 8.449219 12.847656 8.101562 12.507812 C 7.753906 12.171875 7.445312 11.804688 7.175781 11.410156 C 6.902344 11.011719 6.671875 10.59375 6.488281 10.152344 C 6.300781 9.710938 6.15625 9.257812 6.0625 8.789062 C 5.96875 8.324219 5.917969 7.851562 5.917969 7.375 C 5.917969 6.898438 5.96875 6.425781 6.0625 5.957031 C 6.15625 5.488281 6.300781 5.035156 6.488281 4.59375 C 6.671875 4.15625 6.902344 3.734375 7.175781 3.339844 C 7.445312 2.941406 7.753906 2.574219 8.101562 2.238281 C 8.449219 1.902344 8.824219 1.601562 9.230469 1.335938 C 9.636719 1.070312 10.066406 0.847656 10.519531 0.664062 C 10.972656 0.480469 11.4375 0.34375 11.917969 0.25 C 12.398438 0.160156 12.882812 0.113281 13.371094 0.113281 C 13.859375 0.113281 14.34375 0.160156 14.824219 0.25 C 15.304688 0.34375 15.769531 0.480469 16.222656 0.664062 C 16.675781 0.847656 17.105469 1.070312 17.511719 1.335938 C 17.917969 1.601562 18.292969 1.902344 18.640625 2.238281 C 18.984375 2.574219 19.292969 2.941406 19.566406 3.339844 C 19.839844 3.734375 20.066406 4.15625 20.253906 4.59375 C 20.441406 5.035156 20.582031 5.488281 20.679688 5.957031 C 20.773438 6.425781 20.820312 6.898438 20.820312 7.375 Z M 20.820312 7.375 " fill-opacity="1" fill-rule="nonzero"/></g><g clip-path="url(#197420da99)"><path fill="#04182d" d="M 19.226562 22.667969 L 10.84375 22.667969 C 10.699219 22.667969 10.585938 22.554688 10.585938 22.417969 L 10.585938 17.753906 C 10.585938 16.949219 10.203125 16.191406 9.539062 15.675781 C 7.152344 13.828125 5.921875 10.953125 6.246094 7.988281 C 6.691406 3.910156 10.199219 0.621094 14.40625 0.335938 C 16.886719 0.167969 19.253906 0.984375 21.0625 2.628906 C 22.851562 4.253906 23.875 6.550781 23.875 8.929688 C 23.875 11.578125 22.652344 14.039062 20.519531 15.683594 C 19.859375 16.195312 19.484375 16.949219 19.484375 17.753906 L 19.484375 22.417969 C 19.484375 22.554688 19.367188 22.667969 19.226562 22.667969 Z M 11.101562 22.167969 L 18.96875 22.167969 L 18.96875 17.753906 C 18.96875 16.792969 19.417969 15.894531 20.199219 15.289062 C 22.207031 13.738281 23.359375 11.421875 23.359375 8.929688 C 23.359375 6.6875 22.394531 4.527344 20.710938 2.996094 C 19.007812 1.445312 16.78125 0.679688 14.441406 0.835938 C 10.480469 1.105469 7.175781 4.199219 6.757812 8.039062 C 6.453125 10.835938 7.613281 13.542969 9.859375 15.285156 C 10.648438 15.894531 11.101562 16.792969 11.101562 17.753906 Z M 11.101562 22.167969 " fill-opacity="1" fill-rule="nonzero"/></g><g clip-path="url(#581b477ad3)"><path fill="#04182d" d="M 14.972656 24.113281 C 13.140625 24.113281 11.707031 23.367188 11.707031 22.417969 C 11.707031 22.277344 11.820312 22.167969 11.964844 22.167969 C 12.105469 22.167969 12.222656 22.277344 12.222656 22.417969 C 12.222656 22.980469 13.351562 23.609375 14.972656 23.609375 C 16.589844 23.609375 17.71875 22.980469 17.71875 22.417969 C 17.71875 22.277344 17.835938 22.167969 17.976562 22.167969 C 18.121094 22.167969 18.234375 22.277344 18.234375 22.417969 C 18.234375 23.367188 16.800781 24.113281 14.972656 24.113281 Z M 14.972656 24.113281 " fill-opacity="1" fill-rule="nonzero"/></g><path fill="#04182d" d="M 9.84375 18.003906 C 9.710938 18.003906 9.597656 17.902344 9.585938 17.769531 C 9.578125 17.632812 9.683594 17.511719 9.828125 17.503906 L 20.207031 16.800781 C 20.351562 16.792969 20.472656 16.894531 20.480469 17.035156 C 20.492188 17.171875 20.382812 17.292969 20.242188 17.300781 L 9.863281 18.003906 C 9.855469 18.003906 9.851562 18.003906 9.84375 18.003906 Z M 9.84375 18.003906 " fill-opacity="1" fill-rule="nonzero"/><path fill="#04182d" d="M 9.84375 19.609375 C 9.710938 19.609375 9.597656 19.511719 9.585938 19.378906 C 9.578125 19.238281 9.683594 19.117188 9.828125 19.109375 L 20.207031 18.410156 C 20.351562 18.402344 20.472656 18.503906 20.480469 18.640625 C 20.492188 18.78125 20.382812 18.898438 20.242188 18.910156 L 9.863281 19.609375 C 9.855469 19.609375 9.851562 19.609375 9.84375 19.609375 Z M 9.84375 19.609375 " fill-opacity="1" fill-rule="nonzero"/><path fill="#04182d" d="M 9.84375 21.21875 C 9.710938 21.21875 9.597656 21.117188 9.585938 20.984375 C 9.578125 20.847656 9.683594 20.726562 9.828125 20.714844 L 20.207031 20.015625 C 20.351562 20.007812 20.472656 20.109375 20.480469 20.25 C 20.492188 20.386719 20.382812 20.507812 20.242188 20.515625 L 9.863281 21.21875 C 9.855469 21.21875 9.851562 21.21875 9.84375 21.21875 Z M 9.84375 21.21875 " fill-opacity="1" fill-rule="nonzero"/><path stroke-linecap="butt" transform="matrix(0.563957, 0, 0, 0.563957, -0.000000000000015987, 13.358821)" fill="none" stroke-linejoin="miter" d="M 26.11294 21.09913 C 21.015029 21.09913 18.389882 24.347663 18.389882 29.29319 L 18.389882 68.58035 C 18.389882 73.373495 21.015029 76.774411 26.11294 76.774411 C 31.23163 76.774411 33.856777 73.373495 33.856777 68.58035 L 33.856777 29.29319 C 33.856777 24.347663 31.23163 21.09913 26.11294 21.09913 Z M 26.11294 21.09913 " stroke="#04182d" stroke-width="1.401668" stroke-opacity="1" stroke-miterlimit="4"/><g fill="#ffbd59" fill-opacity="1"><g transform="translate(124.407433, 60.982111)"><g><path d="M -44.140625 -8.703125 C -44.140625 -4.601562 -41.53125 -2.488281 -37.550781 -2.488281 L -5.96875 -2.488281 C -2.113281 -2.488281 0.621094 -4.601562 0.621094 -8.703125 C 0.621094 -12.808594 -2.113281 -14.921875 -5.96875 -14.921875 L -37.550781 -14.921875 C -41.53125 -14.921875 -44.140625 -12.808594 -44.140625 -8.703125 Z M -44.140625 -8.703125 "/></g></g></g><g fill="#7ac9fa" fill-opacity="1"><g transform="translate(22.260176, 62.018063)"><g><path d="M 8.703125 -44.140625 C 4.601562 -44.140625 2.488281 -41.53125 2.488281 -37.550781 L 2.488281 -5.96875 C 2.488281 -2.113281 4.601562 0.621094 8.703125 0.621094 C 12.808594 0.621094 14.921875 -2.113281 14.921875 -5.96875 L 14.921875 -37.550781 C 14.921875 -41.53125 12.808594 -44.140625 8.703125 -44.140625 Z M 8.703125 -44.140625 "/></g></g></g><g fill="#ff8bd2" fill-opacity="1"><g transform="translate(159.999502, 65.075903)"><g><path d="M -11.144531 -43.589844 C -14.847656 -41.824219 -15.632812 -38.554688 -13.917969 -34.964844 L -0.324219 -6.457031 C 1.335938 -2.976562 4.421875 -1.417969 8.125 -3.183594 C 11.828125 -4.953125 12.558594 -8.332031 10.898438 -11.808594 L -2.695312 -40.316406 C -4.410156 -43.910156 -7.441406 -45.355469 -11.144531 -43.589844 Z M -11.144531 -43.589844 "/></g></g></g><path stroke-linecap="butt" transform="matrix(0.563957, 0, 0, 0.563957, 24.853568, 13.358827)" fill="none" stroke-linejoin="miter" d="M 11.591421 21.099118 C 5.870124 21.099118 3.099521 24.645491 3.099521 30.068948 L 3.099521 67.80457 C 3.099521 73.228027 5.870124 76.774399 11.591421 76.774399 C 17.333497 76.774399 20.104101 73.228027 20.104101 67.80457 L 20.104101 56.51436 L 25.97778 56.51436 L 39.588371 73.525867 C 41.139909 75.527628 43.612673 76.774399 46.23782 76.774399 C 50.726198 76.774399 54.445733 73.054864 54.445733 68.427956 C 54.445733 66.557798 53.822347 64.70842 52.582502 63.163809 L 41.292292 48.929832 L 52.582502 34.709709 C 53.822347 33.165097 54.445733 31.315719 54.445733 29.445562 C 54.445733 24.797874 50.726198 21.099118 46.23782 21.099118 C 43.931292 21.099118 41.292292 22.172727 39.588371 24.347651 L 25.97778 41.359158 L 20.104101 41.359158 L 20.104101 30.068948 C 20.104101 24.645491 17.333497 21.099118 11.591421 21.099118 Z M 86.910282 36.088084 C 94.951959 36.088084 99.75203 41.206775 99.75203 48.929832 C 99.75203 56.666743 94.951959 61.612271 86.910282 61.612271 C 78.868605 61.612271 74.241697 56.666743 74.241697 48.929832 C 74.241697 41.206775 78.868605 36.088084 86.910282 36.088084 Z M 86.910282 21.099118 C 68.049397 21.099118 57.216337 32.839551 57.216337 48.929832 C 57.216337 65.013187 68.049397 76.774399 86.910282 76.774399 C 105.791946 76.774399 116.75661 65.013187 116.75661 48.929832 C 116.75661 32.839551 105.791946 21.099118 86.910282 21.099118 Z M 130.214817 21.099118 C 124.493521 21.099118 121.715991 24.645491 121.715991 30.068948 L 121.715991 67.035727 C 121.715991 72.452258 124.493521 75.99863 130.214817 75.99863 L 155.891387 75.99863 C 160.061146 75.99863 163.475915 72.604641 163.475915 68.427956 C 163.475915 64.237418 160.061146 60.836502 155.891387 60.836502 L 138.727497 60.836502 L 138.727497 30.068948 C 138.727497 24.645491 135.949967 21.099118 130.214817 21.099118 Z M 191.923088 21.099118 C 191.770705 21.099118 191.694513 21.099118 191.54213 21.099118 C 188.300524 21.099118 185.349831 23.024688 184.047647 26.044646 L 165.941752 64.556037 C 165.318366 65.788956 165.020526 67.035727 165.020526 68.26172 C 165.020526 72.902481 168.892445 76.774399 173.533206 76.774399 C 177.086505 76.774399 180.030272 75.222861 181.256264 71.828872 L 183.34807 65.955192 L 200.137928 65.955192 L 202.132762 71.828872 C 203.379534 75.222861 206.309448 76.774399 209.8766 76.774399 C 214.503508 76.774399 218.375427 72.902481 218.375427 68.26172 C 218.375427 67.035727 218.07066 65.788956 217.447274 64.556037 L 199.362159 26.044646 C 197.963004 23.10088 195.171621 21.251502 191.923088 21.099118 Z M 195.566432 52.794824 L 187.898786 52.794824 L 191.770705 41.83016 Z M 228.114099 21.099118 C 223.639574 21.099118 219.920038 24.797874 219.920038 29.140796 C 219.920038 30.53995 220.224805 31.765943 221.000574 33.012714 L 236.155776 58.987124 L 236.155776 67.80457 C 236.155776 73.228027 238.954085 76.774399 244.675382 76.774399 C 250.396679 76.774399 253.167282 73.228027 253.167282 67.80457 L 253.167282 58.987124 L 268.329411 33.012714 C 269.10518 31.765943 269.40302 30.366788 269.40302 28.988412 C 269.40302 24.645491 265.704264 21.099118 261.208959 21.099118 C 257.81497 21.099118 255.342206 22.64373 254.095435 25.268877 L 244.675382 45.22415 L 235.23455 25.268877 C 233.987778 22.64373 231.515015 21.099118 228.114099 21.099118 Z M 228.114099 21.099118 " stroke="#04182d" stroke-width="1.401666" stroke-opacity="1" stroke-miterlimit="4"/><g fill="#04182d" fill-opacity="1"><g transform="translate(45.402754, 78.519018)"><g><path d="M 2.355469 -12.574219 C 1.503906 -12.574219 1.082031 -12.042969 1.082031 -11.226562 L 1.082031 -1.167969 C 1.082031 -0.355469 1.503906 0.175781 2.355469 0.175781 C 3.203125 0.175781 3.648438 -0.355469 3.648438 -1.167969 L 3.648438 -5.046875 L 5.84375 -5.046875 L 9.738281 -0.320312 C 9.96875 -0.0195312 10.324219 0.175781 10.730469 0.175781 C 11.402344 0.175781 11.96875 -0.371094 11.96875 -1.082031 C 11.96875 -1.363281 11.882812 -1.648438 11.6875 -1.878906 L 8.109375 -6.199219 L 11.6875 -10.519531 C 11.882812 -10.75 11.96875 -11.03125 11.96875 -11.316406 C 11.96875 -12.023438 11.402344 -12.574219 10.730469 -12.574219 C 10.375 -12.574219 9.988281 -12.394531 9.738281 -12.078125 L 5.84375 -7.347656 L 3.648438 -7.347656 L 3.648438 -11.226562 C 3.648438 -12.042969 3.203125 -12.574219 2.355469 -12.574219 Z M 2.355469 -12.574219 "/></g></g></g><g fill="#04182d" fill-opacity="1"><g transform="translate(57.656034, 78.519018)"><g><path d="M 2.355469 -12.574219 C 1.503906 -12.574219 1.082031 -12.042969 1.082031 -11.226562 L 1.082031 -4.640625 C 1.082031 -1.734375 3.097656 0.175781 6.304688 0.175781 C 9.507812 0.175781 11.546875 -1.734375 11.546875 -4.640625 L 11.546875 -11.226562 C 11.546875 -12.042969 11.121094 -12.574219 10.269531 -12.574219 C 9.421875 -12.574219 8.960938 -12.042969 8.960938 -11.226562 L 8.960938 -4.921875 C 8.960938 -3.097656 8.039062 -2.105469 6.304688 -2.105469 C 4.570312 -2.105469 3.648438 -3.132812 3.648438 -4.921875 L 3.648438 -11.226562 C 3.648438 -12.042969 3.203125 -12.574219 2.355469 -12.574219 Z M 2.355469 -12.574219 "/></g></g></g><g fill="#04182d" fill-opacity="1"><g transform="translate(70.263451, 78.519018)"><g><path d="M 8.304688 -5.417969 C 9.738281 -5.808594 10.660156 -6.996094 10.660156 -8.871094 C 10.660156 -11.191406 9.242188 -12.394531 7.011719 -12.394531 L 2.371094 -12.394531 C 1.523438 -12.394531 1.082031 -11.863281 1.082031 -11.050781 L 1.082031 -1.167969 C 1.082031 -0.355469 1.523438 0.175781 2.371094 0.175781 C 3.222656 0.175781 3.648438 -0.355469 3.648438 -1.167969 L 3.648438 -4.621094 L 4.976562 -4.621094 C 5.789062 -4.621094 6.429688 -4.285156 6.816406 -3.613281 L 8.746094 -0.460938 C 8.960938 -0.0703125 9.402344 0.175781 9.828125 0.175781 C 10.519531 0.175781 11.121094 -0.40625 11.121094 -1.097656 C 11.121094 -1.347656 11.050781 -1.574219 10.90625 -1.789062 L 9.421875 -4.265625 C 9.121094 -4.78125 8.746094 -5.152344 8.304688 -5.417969 Z M 3.648438 -6.765625 L 3.648438 -10.269531 L 6.339844 -10.269531 C 7.367188 -10.269531 8.074219 -9.632812 8.074219 -8.535156 C 8.074219 -7.4375 7.367188 -6.765625 6.339844 -6.765625 Z M 3.648438 -6.765625 "/></g></g></g><g fill="#04182d" fill-opacity="1"><g transform="translate(81.702209, 78.519018)"><g><path d="M 2.355469 -12.574219 C 1.503906 -12.574219 1.082031 -12.042969 1.082031 -11.226562 L 1.082031 -4.640625 C 1.082031 -1.734375 3.097656 0.175781 6.304688 0.175781 C 9.507812 0.175781 11.546875 -1.734375 11.546875 -4.640625 L 11.546875 -11.226562 C 11.546875 -12.042969 11.121094 -12.574219 10.269531 -12.574219 C 9.421875 -12.574219 8.960938 -12.042969 8.960938 -11.226562 L 8.960938 -4.921875 C 8.960938 -3.097656 8.039062 -2.105469 6.304688 -2.105469 C 4.570312 -2.105469 3.648438 -3.132812 3.648438 -4.921875 L 3.648438 -11.226562 C 3.648438 -12.042969 3.203125 -12.574219 2.355469 -12.574219 Z M 2.355469 -12.574219 "/></g></g></g><g fill="#04182d" fill-opacity="1"><g transform="translate(94.309626, 78.519018)"><g><path d="M 3.398438 -12.574219 C 2.761719 -12.574219 2.195312 -12.09375 2.125 -11.457031 L 0.742188 -1.238281 L 0.742188 -1.0625 C 0.742188 -0.335938 1.257812 0.175781 1.984375 0.175781 C 2.65625 0.175781 3.203125 -0.300781 3.257812 -0.972656 L 4.214844 -7.738281 L 6.390625 -2.265625 C 6.570312 -1.839844 6.921875 -1.59375 7.472656 -1.59375 C 7.984375 -1.59375 8.394531 -1.804688 8.570312 -2.265625 L 10.730469 -7.738281 L 11.6875 -0.972656 C 11.738281 -0.300781 12.289062 0.175781 12.960938 0.175781 C 13.6875 0.175781 14.203125 -0.371094 14.203125 -1.097656 L 14.203125 -1.238281 L 12.839844 -11.457031 C 12.765625 -12.09375 12.183594 -12.574219 11.546875 -12.574219 C 11.085938 -12.574219 10.660156 -12.359375 10.484375 -11.933594 L 7.492188 -4.992188 L 4.460938 -11.933594 C 4.285156 -12.324219 3.878906 -12.574219 3.398438 -12.574219 Z M 3.398438 -12.574219 "/></g></g></g><g fill="#04182d" fill-opacity="1"><g transform="translate(109.218965, 78.519018)"><g><path d="M 5.523438 -12.574219 C 2.65625 -12.574219 1.203125 -11.085938 1.203125 -8.941406 C 1.203125 -6.871094 2.214844 -5.898438 4 -5.402344 L 6.199219 -4.816406 C 7.332031 -4.53125 7.667969 -4.039062 7.667969 -3.433594 C 7.667969 -2.601562 7.066406 -1.984375 5.648438 -1.984375 C 4.265625 -1.984375 3.3125 -2.195312 2.371094 -2.796875 C 2.195312 -2.921875 1.984375 -2.976562 1.804688 -2.976562 C 1.167969 -2.976562 0.742188 -2.53125 0.742188 -1.914062 C 0.742188 -1.664062 0.832031 -1.398438 1.042969 -1.1875 C 2.070312 -0.265625 3.613281 0.175781 5.703125 0.175781 C 8.78125 0.175781 10.234375 -1.433594 10.234375 -3.558594 C 10.234375 -5.488281 9.386719 -6.464844 7.4375 -6.996094 L 5.242188 -7.578125 C 4.25 -7.828125 3.773438 -8.199219 3.773438 -9.03125 C 3.773438 -9.878906 4.460938 -10.410156 5.738281 -10.410156 C 6.621094 -10.410156 7.402344 -10.128906 8.109375 -9.597656 C 8.289062 -9.457031 8.5 -9.421875 8.710938 -9.421875 C 9.421875 -9.421875 9.773438 -9.863281 9.773438 -10.484375 C 9.773438 -10.730469 9.703125 -10.941406 9.527344 -11.15625 C 8.710938 -11.96875 7.101562 -12.574219 5.523438 -12.574219 Z M 5.523438 -12.574219 "/></g></g></g><g fill="#04182d" fill-opacity="1"><g transform="translate(120.126511, 78.519018)"><g><path d="M 6.019531 -12.574219 C 6.003906 -12.574219 5.984375 -12.574219 5.984375 -12.574219 C 5.488281 -12.574219 5.027344 -12.269531 4.816406 -11.828125 L 0.441406 -1.664062 C 0.355469 -1.46875 0.320312 -1.292969 0.320312 -1.097656 C 0.320312 -0.390625 0.886719 0.175781 1.59375 0.175781 C 2.125 0.175781 2.566406 -0.0546875 2.761719 -0.566406 L 3.648438 -2.976562 L 8.324219 -2.976562 L 9.207031 -0.566406 C 9.402344 -0.0546875 9.84375 0.175781 10.375 0.175781 C 11.085938 0.175781 11.667969 -0.390625 11.667969 -1.097656 C 11.667969 -1.292969 11.617188 -1.46875 11.527344 -1.664062 L 7.152344 -11.828125 C 6.941406 -12.269531 6.515625 -12.554688 6.019531 -12.574219 Z M 7.597656 -4.976562 L 4.390625 -4.976562 L 6.003906 -9.347656 Z M 7.597656 -4.976562 "/></g></g></g><g fill="#04182d" fill-opacity="1"><g transform="translate(132.061061, 78.519018)"><g><path d="M 2.355469 -12.574219 C 1.503906 -12.574219 1.082031 -12.042969 1.082031 -11.226562 L 1.082031 -1.347656 C 1.082031 -0.53125 1.503906 0 2.355469 0 L 8.605469 0 C 9.242188 0 9.773438 -0.511719 9.773438 -1.152344 C 9.773438 -1.789062 9.242188 -2.300781 8.605469 -2.300781 L 3.648438 -2.300781 L 3.648438 -11.226562 C 3.648438 -12.042969 3.203125 -12.574219 2.355469 -12.574219 Z M 2.355469 -12.574219 "/></g></g></g></svg>