<svg xmlns="http://www.w3.org/2000/svg" xmlns:xlink="http://www.w3.org/1999/xlink" width="150" zoomAndPan="magnify" viewBox="0 0 187.5 112.499997" preserveAspectRatio="xMidYMid meet" version="1.0"><defs><g/><clipPath id="272c07fa21"><path d="M 6.054688 14.296875 L 21 14.296875 L 21 29 L 6.054688 29 Z M 6.054688 14.296875 " clip-rule="nonzero"/></clipPath><clipPath id="a7c2479f93"><path d="M 6.054688 14.296875 L 24 14.296875 L 24 37 L 6.054688 37 Z M 6.054688 14.296875 " clip-rule="nonzero"/></clipPath><clipPath id="d14e8fcbee"><path d="M 11 36 L 19 36 L 19 38.257812 L 11 38.257812 Z M 11 36 " clip-rule="nonzero"/></clipPath></defs><g clip-path="url(#272c07fa21)"><path fill="#ffbd59" d="M 20.953125 21.546875 C 20.953125 22.023438 20.902344 22.496094 20.808594 22.960938 C 20.714844 23.429688 20.570312 23.882812 20.386719 24.324219 C 20.199219 24.761719 19.96875 25.179688 19.699219 25.574219 C 19.425781 25.972656 19.117188 26.335938 18.773438 26.675781 C 18.425781 27.011719 18.050781 27.3125 17.644531 27.574219 C 17.238281 27.839844 16.8125 28.0625 16.359375 28.246094 C 15.910156 28.429688 15.441406 28.566406 14.964844 28.660156 C 14.484375 28.75 14 28.796875 13.511719 28.796875 C 13.023438 28.796875 12.539062 28.75 12.0625 28.660156 C 11.582031 28.566406 11.117188 28.429688 10.667969 28.246094 C 10.214844 28.0625 9.785156 27.839844 9.378906 27.574219 C 8.972656 27.3125 8.597656 27.011719 8.253906 26.675781 C 7.90625 26.335938 7.601562 25.972656 7.328125 25.574219 C 7.058594 25.179688 6.828125 24.761719 6.640625 24.324219 C 6.453125 23.882812 6.3125 23.429688 6.21875 22.960938 C 6.121094 22.496094 6.074219 22.023438 6.074219 21.546875 C 6.074219 21.070312 6.121094 20.601562 6.21875 20.132812 C 6.3125 19.667969 6.453125 19.214844 6.640625 18.773438 C 6.828125 18.332031 7.058594 17.917969 7.328125 17.519531 C 7.601562 17.125 7.90625 16.757812 8.253906 16.421875 C 8.597656 16.085938 8.972656 15.785156 9.378906 15.519531 C 9.785156 15.253906 10.214844 15.03125 10.667969 14.851562 C 11.117188 14.667969 11.582031 14.53125 12.0625 14.4375 C 12.539062 14.34375 13.023438 14.296875 13.511719 14.296875 C 14 14.296875 14.484375 14.34375 14.964844 14.4375 C 15.441406 14.53125 15.910156 14.667969 16.359375 14.851562 C 16.8125 15.03125 17.238281 15.253906 17.644531 15.519531 C 18.050781 15.785156 18.425781 16.085938 18.773438 16.421875 C 19.117188 16.757812 19.425781 17.125 19.699219 17.519531 C 19.96875 17.917969 20.199219 18.332031 20.386719 18.773438 C 20.570312 19.214844 20.714844 19.667969 20.808594 20.132812 C 20.902344 20.601562 20.953125 21.070312 20.953125 21.546875 Z M 20.953125 21.546875 " fill-opacity="1" fill-rule="nonzero"/></g><g clip-path="url(#a7c2479f93)"><path fill="#04182d" d="M 19.355469 36.816406 L 10.988281 36.816406 C 10.847656 36.816406 10.730469 36.703125 10.730469 36.566406 L 10.730469 31.910156 C 10.730469 31.105469 10.351562 30.351562 9.6875 29.835938 C 7.304688 27.992188 6.078125 25.121094 6.398438 22.160156 C 6.84375 18.089844 10.347656 14.804688 14.546875 14.523438 C 17.023438 14.355469 19.386719 15.167969 21.191406 16.8125 C 22.976562 18.433594 23.996094 20.726562 23.996094 23.101562 C 23.996094 25.742188 22.777344 28.199219 20.652344 29.84375 C 19.992188 30.351562 19.613281 31.105469 19.613281 31.90625 L 19.613281 36.566406 C 19.613281 36.703125 19.5 36.816406 19.355469 36.816406 Z M 11.246094 36.3125 L 19.101562 36.3125 L 19.101562 31.90625 C 19.101562 30.949219 19.546875 30.054688 20.332031 29.449219 C 22.335938 27.902344 23.484375 25.589844 23.484375 23.101562 C 23.484375 20.863281 22.519531 18.707031 20.839844 17.179688 C 19.140625 15.632812 16.917969 14.867188 14.582031 15.023438 C 10.628906 15.289062 7.332031 18.378906 6.910156 22.214844 C 6.609375 25.003906 7.765625 27.707031 10.007812 29.445312 C 10.796875 30.054688 11.246094 30.953125 11.246094 31.910156 Z M 11.246094 36.3125 " fill-opacity="1" fill-rule="nonzero"/></g><g clip-path="url(#d14e8fcbee)"><path fill="#04182d" d="M 15.109375 38.257812 C 13.285156 38.257812 11.851562 37.511719 11.851562 36.566406 C 11.851562 36.425781 11.96875 36.3125 12.109375 36.3125 C 12.25 36.3125 12.367188 36.425781 12.367188 36.566406 C 12.367188 37.128906 13.492188 37.753906 15.109375 37.753906 C 16.726562 37.753906 17.855469 37.128906 17.855469 36.566406 C 17.855469 36.425781 17.96875 36.3125 18.113281 36.3125 C 18.253906 36.3125 18.371094 36.425781 18.371094 36.566406 C 18.371094 37.511719 16.9375 38.257812 15.109375 38.257812 Z M 15.109375 38.257812 " fill-opacity="1" fill-rule="nonzero"/></g><path fill="#04182d" d="M 9.992188 32.160156 C 9.859375 32.160156 9.746094 32.058594 9.738281 31.925781 C 9.726562 31.789062 9.832031 31.667969 9.976562 31.660156 L 20.335938 30.957031 C 20.480469 30.949219 20.601562 31.054688 20.609375 31.191406 C 20.621094 31.328125 20.511719 31.449219 20.371094 31.457031 L 10.011719 32.160156 C 10.003906 32.160156 10 32.160156 9.992188 32.160156 Z M 9.992188 32.160156 " fill-opacity="1" fill-rule="nonzero"/><path fill="#04182d" d="M 9.992188 33.761719 C 9.859375 33.761719 9.746094 33.664062 9.738281 33.53125 C 9.726562 33.390625 9.832031 33.273438 9.976562 33.261719 L 20.335938 32.5625 C 20.480469 32.554688 20.601562 32.65625 20.609375 32.796875 C 20.621094 32.933594 20.511719 33.054688 20.371094 33.0625 L 10.011719 33.761719 C 10.003906 33.761719 10 33.761719 9.992188 33.761719 Z M 9.992188 33.761719 " fill-opacity="1" fill-rule="nonzero"/><path fill="#04182d" d="M 9.992188 35.367188 C 9.859375 35.367188 9.746094 35.265625 9.738281 35.132812 C 9.726562 34.996094 9.832031 34.875 9.976562 34.867188 L 20.335938 34.167969 C 20.480469 34.15625 20.601562 34.261719 20.609375 34.398438 C 20.621094 34.539062 20.511719 34.65625 20.371094 34.667969 L 10.011719 35.367188 C 10.003906 35.367188 10 35.367188 9.992188 35.367188 Z M 9.992188 35.367188 " fill-opacity="1" fill-rule="nonzero"/><path stroke-linecap="butt" transform="matrix(0.562958, 0, 0, 0.562958, 0.165932, 27.52215)" fill="none" stroke-linejoin="miter" d="M 26.114286 21.09621 C 21.014276 21.09621 18.391413 24.343564 18.391413 29.290921 L 18.391413 68.578353 C 18.391413 73.373057 21.014276 76.773064 26.114286 76.773064 C 31.228175 76.773064 33.857977 73.373057 33.857977 68.578353 L 33.857977 29.290921 C 33.857977 24.343564 31.228175 21.09621 26.114286 21.09621 Z M 26.114286 21.09621 " stroke="#04182d" stroke-width="1.401668" stroke-opacity="1" stroke-miterlimit="4"/><g fill="#ffbd59" fill-opacity="1"><g transform="translate(124.353171, 75.061159)"><g><path d="M -44.0625 -8.6875 C -44.0625 -4.59375 -41.457031 -2.484375 -37.484375 -2.484375 L -5.957031 -2.484375 C -2.109375 -2.484375 0.621094 -4.59375 0.621094 -8.6875 C 0.621094 -12.785156 -2.109375 -14.894531 -5.957031 -14.894531 L -37.484375 -14.894531 C -41.457031 -14.894531 -44.0625 -12.785156 -44.0625 -8.6875 Z M -44.0625 -8.6875 "/></g></g></g><g fill="#7ac9fa" fill-opacity="1"><g transform="translate(22.386709, 76.095269)"><g><path d="M 8.6875 -44.0625 C 4.59375 -44.0625 2.484375 -41.457031 2.484375 -37.484375 L 2.484375 -5.957031 C 2.484375 -2.109375 4.59375 0.621094 8.6875 0.621094 C 12.785156 0.621094 14.894531 -2.109375 14.894531 -5.957031 L 14.894531 -37.484375 C 14.894531 -41.457031 12.785156 -44.0625 8.6875 -44.0625 Z M 8.6875 -44.0625 "/></g></g></g><g fill="#ff8bd2" fill-opacity="1"><g transform="translate(159.882244, 79.147695)"><g><path d="M -11.125 -43.511719 C -14.820312 -41.75 -15.605469 -38.488281 -13.894531 -34.902344 L -0.324219 -6.445312 C 1.332031 -2.972656 4.414062 -1.417969 8.109375 -3.179688 C 11.808594 -4.941406 12.535156 -8.316406 10.878906 -11.789062 L -2.691406 -40.246094 C -4.402344 -43.832031 -7.425781 -45.273438 -11.125 -43.511719 Z M -11.125 -43.511719 "/></g></g></g><path stroke-linecap="butt" transform="matrix(0.562958, 0, 0, 0.562958, 24.97551, 27.522156)" fill="none" stroke-linejoin="miter" d="M 11.589649 21.0962 C 5.872086 21.0962 3.09657 24.648861 3.09657 30.068056 L 3.09657 67.808137 C 3.09657 73.227333 5.872086 76.773055 11.589649 76.773055 C 17.328029 76.773055 20.103545 73.227333 20.103545 67.808137 L 20.103545 56.518725 L 25.980701 56.518725 L 39.587669 73.525701 C 41.135019 75.531011 43.612167 76.773055 46.23503 76.773055 C 50.731366 76.773055 54.450558 73.053863 54.450558 68.432629 C 54.450558 66.559155 53.826067 64.713437 52.577084 63.159148 L 41.287672 48.927689 L 52.577084 34.710107 C 53.826067 33.162757 54.450558 31.3101 54.450558 29.443565 C 54.450558 24.801514 50.731366 21.0962 46.23503 21.0962 C 43.931351 21.0962 41.287672 22.171713 39.587669 24.343554 L 25.980701 41.357468 L 20.103545 41.357468 L 20.103545 30.068056 C 20.103545 24.648861 17.328029 21.0962 11.589649 21.0962 Z M 86.910219 36.090926 C 94.952278 36.090926 99.746982 41.204815 99.746982 48.927689 C 99.746982 56.66444 94.952278 61.611798 86.910219 61.611798 C 78.868161 61.611798 74.239988 56.66444 74.239988 48.927689 C 74.239988 41.204815 78.868161 36.090926 86.910219 36.090926 Z M 86.910219 21.0962 C 68.050587 21.0962 57.212196 32.843572 57.212196 48.927689 C 57.212196 65.011805 68.050587 76.773055 86.910219 76.773055 C 105.790668 76.773055 116.760896 65.011805 116.760896 48.927689 C 116.760896 32.843572 105.790668 21.0962 86.910219 21.0962 Z M 130.215211 21.0962 C 124.490709 21.0962 121.715192 24.648861 121.715192 30.068056 L 121.715192 67.030993 C 121.715192 72.450188 124.490709 76.002849 130.215211 76.002849 L 155.888735 76.002849 C 160.058948 76.002849 163.479772 72.602842 163.479772 68.432629 C 163.479772 64.241599 160.058948 60.841592 155.888735 60.841592 L 138.729107 60.841592 L 138.729107 30.068056 C 138.729107 24.648861 135.95359 21.0962 130.215211 21.0962 Z M 191.921874 21.0962 C 191.769221 21.0962 191.692894 21.0962 191.547179 21.0962 C 188.299826 21.0962 185.35084 23.025184 184.046347 26.043558 L 165.943043 64.560783 C 165.318552 65.788949 165.020184 67.030993 165.020184 68.259159 C 165.020184 72.90121 168.892029 76.773055 173.534079 76.773055 C 177.079801 76.773055 180.028787 75.225704 181.256953 71.825697 L 183.352468 65.95548 L 200.137402 65.95548 L 202.135774 71.825697 C 203.384756 75.225704 206.305987 76.773055 209.879464 76.773055 C 214.500698 76.773055 218.372543 72.90121 218.372543 68.259159 C 218.372543 67.030993 218.067237 65.788949 217.449684 64.560783 L 199.360258 26.043558 C 197.965561 23.101511 195.169228 21.248853 191.921874 21.0962 Z M 195.564739 52.799534 L 187.904314 52.799534 L 191.769221 41.829306 Z M 228.114605 21.0962 C 223.639085 21.0962 219.919894 24.801514 219.919894 29.138258 C 219.919894 30.539894 220.2252 31.76806 220.995406 33.010103 L 236.156663 58.988935 L 236.156663 67.808137 C 236.156663 73.227333 238.952996 76.773055 244.670559 76.773055 C 250.395061 76.773055 253.170577 73.227333 253.170577 67.808137 L 253.170577 58.988935 L 268.331835 33.010103 C 269.10204 31.76806 269.407347 30.366424 269.407347 28.992544 C 269.407347 24.648861 265.702033 21.0962 261.212636 21.0962 C 257.812628 21.0962 255.342419 22.64355 254.093437 25.273352 L 244.670559 45.229313 L 235.233804 25.273352 C 233.984822 22.64355 231.514612 21.0962 228.114605 21.0962 Z M 228.114605 21.0962 " stroke="#04182d" stroke-width="1.401666" stroke-opacity="1" stroke-miterlimit="4"/></svg>