<svg xmlns="http://www.w3.org/2000/svg" xmlns:xlink="http://www.w3.org/1999/xlink" width="200" zoomAndPan="magnify" viewBox="0 0 375 172.499995"  preserveAspectRatio="xMidYMid meet" version="1.0"><defs><g/><clipPath id="1be32e8d5b"><path d="M 30.027344 17.199219 L 57 17.199219 L 57 44 L 30.027344 44 Z M 30.027344 17.199219 " clip-rule="nonzero"/></clipPath><clipPath id="95d1a90564"><path d="M 30.027344 17.199219 L 61.4375 17.199219 L 61.4375 58 L 30.027344 58 Z M 30.027344 17.199219 " clip-rule="nonzero"/></clipPath><clipPath id="46036bc399"><path d="M 40 57 L 52 57 L 52 60.574219 L 40 60.574219 Z M 40 57 " clip-rule="nonzero"/></clipPath></defs><g clip-path="url(#1be32e8d5b)"><path fill="#ffbd59" d="M 56.070312 30.324219 C 56.070312 31.1875 55.988281 32.039062 55.820312 32.886719 C 55.65625 33.730469 55.410156 34.550781 55.082031 35.347656 C 54.753906 36.144531 54.355469 36.902344 53.878906 37.617188 C 53.40625 38.332031 52.867188 38.996094 52.261719 39.605469 C 51.660156 40.214844 51.003906 40.757812 50.292969 41.238281 C 49.582031 41.71875 48.832031 42.121094 48.042969 42.449219 C 47.253906 42.78125 46.441406 43.03125 45.605469 43.199219 C 44.769531 43.367188 43.921875 43.449219 43.070312 43.449219 C 42.214844 43.449219 41.367188 43.367188 40.53125 43.199219 C 39.695312 43.03125 38.882812 42.78125 38.09375 42.449219 C 37.304688 42.121094 36.554688 41.71875 35.84375 41.238281 C 35.132812 40.757812 34.476562 40.214844 33.875 39.605469 C 33.269531 38.996094 32.730469 38.332031 32.257812 37.617188 C 31.78125 36.902344 31.382812 36.144531 31.054688 35.347656 C 30.726562 34.550781 30.480469 33.730469 30.316406 32.886719 C 30.148438 32.039062 30.066406 31.1875 30.066406 30.324219 C 30.066406 29.464844 30.148438 28.609375 30.316406 27.765625 C 30.480469 26.917969 30.726562 26.097656 31.054688 25.300781 C 31.382812 24.507812 31.78125 23.75 32.257812 23.035156 C 32.730469 22.316406 33.269531 21.652344 33.875 21.042969 C 34.476562 20.433594 35.132812 19.890625 35.84375 19.414062 C 36.554688 18.933594 37.304688 18.527344 38.09375 18.199219 C 38.882812 17.871094 39.695312 17.621094 40.53125 17.453125 C 41.367188 17.285156 42.214844 17.199219 43.070312 17.199219 C 43.921875 17.199219 44.769531 17.285156 45.605469 17.453125 C 46.441406 17.621094 47.253906 17.871094 48.042969 18.199219 C 48.832031 18.527344 49.582031 18.933594 50.292969 19.414062 C 51.003906 19.890625 51.660156 20.433594 52.261719 21.042969 C 52.867188 21.652344 53.40625 22.316406 53.878906 23.035156 C 54.355469 23.75 54.753906 24.507812 55.082031 25.300781 C 55.410156 26.097656 55.65625 26.917969 55.820312 27.765625 C 55.988281 28.609375 56.070312 29.464844 56.070312 30.324219 Z M 56.070312 30.324219 " fill-opacity="1" fill-rule="nonzero"/></g><g clip-path="url(#95d1a90564)"><path fill="#04182d" d="M 53.285156 57.96875 L 38.65625 57.96875 C 38.40625 57.96875 38.207031 57.765625 38.207031 57.511719 L 38.207031 49.082031 C 38.207031 47.628906 37.542969 46.261719 36.378906 45.332031 C 32.21875 41.992188 30.070312 36.796875 30.632812 31.433594 C 31.410156 24.0625 37.53125 18.117188 44.875 17.605469 C 49.203125 17.300781 53.332031 18.773438 56.492188 21.75 C 59.609375 24.6875 61.398438 28.835938 61.398438 33.136719 C 61.398438 37.917969 59.265625 42.367188 55.546875 45.34375 C 54.394531 46.265625 53.734375 47.625 53.734375 49.082031 L 53.734375 57.511719 C 53.734375 57.765625 53.535156 57.96875 53.285156 57.96875 Z M 39.105469 57.058594 L 52.835938 57.058594 L 52.835938 49.082031 C 52.835938 47.347656 53.621094 45.726562 54.988281 44.632812 C 58.488281 41.828125 60.496094 37.640625 60.496094 33.136719 C 60.496094 29.085938 58.816406 25.179688 55.878906 22.414062 C 52.90625 19.613281 49.023438 18.226562 44.9375 18.511719 C 38.023438 18.992188 32.261719 24.589844 31.527344 31.53125 C 30.996094 36.582031 33.019531 41.476562 36.941406 44.621094 C 38.316406 45.722656 39.105469 47.351562 39.105469 49.082031 Z M 39.105469 57.058594 " fill-opacity="1" fill-rule="nonzero"/></g><g clip-path="url(#46036bc399)"><path fill="#04182d" d="M 45.863281 60.574219 C 42.667969 60.574219 40.164062 59.230469 40.164062 57.511719 C 40.164062 57.261719 40.367188 57.058594 40.613281 57.058594 C 40.863281 57.058594 41.0625 57.261719 41.0625 57.511719 C 41.0625 58.53125 43.035156 59.667969 45.863281 59.667969 C 48.6875 59.667969 50.660156 58.53125 50.660156 57.511719 C 50.660156 57.261719 50.859375 57.058594 51.109375 57.058594 C 51.355469 57.058594 51.558594 57.261719 51.558594 57.511719 C 51.558594 59.230469 49.054688 60.574219 45.863281 60.574219 Z M 45.863281 60.574219 " fill-opacity="1" fill-rule="nonzero"/></g><path fill="#04182d" d="M 36.914062 49.535156 C 36.679688 49.535156 36.484375 49.351562 36.464844 49.113281 C 36.449219 48.863281 36.636719 48.648438 36.882812 48.628906 L 54.996094 47.363281 C 55.25 47.347656 55.457031 47.535156 55.476562 47.785156 C 55.492188 48.035156 55.304688 48.25 55.058594 48.269531 L 36.945312 49.535156 C 36.9375 49.535156 36.925781 49.535156 36.914062 49.535156 Z M 36.914062 49.535156 " fill-opacity="1" fill-rule="nonzero"/><path fill="#04182d" d="M 36.914062 52.441406 C 36.679688 52.441406 36.484375 52.257812 36.464844 52.019531 C 36.449219 51.769531 36.636719 51.550781 36.882812 51.535156 L 54.996094 50.265625 C 55.25 50.253906 55.457031 50.4375 55.476562 50.6875 C 55.492188 50.9375 55.304688 51.15625 55.058594 51.171875 L 36.945312 52.441406 C 36.9375 52.441406 36.925781 52.441406 36.914062 52.441406 Z M 36.914062 52.441406 " fill-opacity="1" fill-rule="nonzero"/><path fill="#04182d" d="M 36.914062 55.34375 C 36.679688 55.34375 36.484375 55.164062 36.464844 54.921875 C 36.449219 54.671875 36.636719 54.457031 36.882812 54.4375 L 54.996094 53.171875 C 55.25 53.15625 55.457031 53.34375 55.476562 53.59375 C 55.492188 53.84375 55.304688 54.058594 55.058594 54.078125 L 36.945312 55.34375 C 36.9375 55.34375 36.925781 55.34375 36.914062 55.34375 Z M 36.914062 55.34375 " fill-opacity="1" fill-rule="nonzero"/><path stroke-linecap="butt" transform="matrix(1.010867, 0, 0, 1.010867, 19.457313, 40.945006)" fill="none" stroke-linejoin="miter" d="M 26.114372 21.099148 C 21.017417 21.099148 18.393586 24.345124 18.393586 29.291373 L 18.393586 68.579277 C 18.393586 73.37482 21.017417 76.775367 26.114372 76.775367 C 31.230649 76.775367 33.854479 73.37482 33.854479 68.579277 L 33.854479 29.291373 C 33.854479 24.345124 31.230649 21.099148 26.114372 21.099148 Z M 26.114372 21.099148 " stroke="#04182d" stroke-width="1.401668" stroke-opacity="1" stroke-miterlimit="4"/><g fill="#ffde59" fill-opacity="1"><g transform="translate(242.452999, 126.317045)"><g><path d="M -79.121094 -15.601562 C -79.121094 -8.246094 -74.441406 -4.457031 -67.308594 -4.457031 L -10.699219 -4.457031 C -3.789062 -4.457031 1.113281 -8.246094 1.113281 -15.601562 C 1.113281 -22.957031 -3.789062 -26.746094 -10.699219 -26.746094 L -67.308594 -26.746094 C -74.441406 -26.746094 -79.121094 -22.957031 -79.121094 -15.601562 Z M -79.121094 -15.601562 "/></g></g></g><g fill="#5ce1e6" fill-opacity="1"><g transform="translate(56.669, 128.164535)"><g><path d="M 15.601562 -79.121094 C 8.246094 -79.121094 4.457031 -74.441406 4.457031 -67.308594 L 4.457031 -10.699219 C 4.457031 -3.789062 8.246094 1.113281 15.601562 1.113281 C 22.957031 1.113281 26.746094 -3.789062 26.746094 -10.699219 L 26.746094 -67.308594 C 26.746094 -74.441406 22.957031 -79.121094 15.601562 -79.121094 Z M 15.601562 -79.121094 "/></g></g></g><g fill="#ff8bd2" fill-opacity="1"><g transform="translate(306.247941, 138.147961)"><g><path d="M -19.976562 -78.132812 C -26.613281 -74.964844 -28.019531 -69.109375 -24.949219 -62.671875 L -0.582031 -11.574219 C 2.390625 -5.339844 7.921875 -2.542969 14.5625 -5.710938 C 21.199219 -8.875 22.511719 -14.933594 19.535156 -21.167969 L -4.832031 -72.265625 C -7.902344 -78.703125 -13.335938 -81.296875 -19.976562 -78.132812 Z M -19.976562 -78.132812 "/></g></g></g><path stroke-linecap="butt" transform="matrix(1.010867, 0, 0, 1.010867, 64.006228, 40.945016)" fill="none" stroke-linejoin="miter" d="M 11.590475 21.099138 C 5.871375 21.099138 3.096838 24.646526 3.096838 30.068079 L 3.096838 67.806416 C 3.096838 73.224105 5.871375 76.775357 11.590475 76.775357 C 17.332762 76.775357 20.107298 73.224105 20.107298 67.806416 L 20.107298 56.515056 L 25.977105 56.515056 L 39.590884 73.525517 C 41.136587 75.527202 43.609711 76.775357 46.237406 76.775357 C 50.727673 76.775357 54.448953 73.054077 54.448953 68.428561 C 54.448953 66.562125 53.826807 64.711146 52.578652 63.161579 L 41.291157 48.925655 L 52.578652 34.709052 C 53.826807 33.163349 54.448953 31.31237 54.448953 29.44207 C 54.448953 24.797232 50.727673 21.099138 46.237406 21.099138 C 43.930445 21.099138 41.291157 22.173402 39.590884 24.345114 L 25.977105 41.355575 L 20.107298 41.355575 L 20.107298 30.068079 C 20.107298 24.646526 17.332762 21.099138 11.590475 21.099138 Z M 86.912578 36.088592 C 94.954098 36.088592 99.749641 41.204869 99.749641 48.925655 C 99.749641 56.665762 94.954098 61.612012 86.912578 61.612012 C 78.867195 61.612012 74.241679 56.665762 74.241679 48.925655 C 74.241679 41.204869 78.867195 36.088592 86.912578 36.088592 Z M 86.912578 21.099138 C 68.051138 21.099138 57.211897 32.842616 57.211897 48.925655 C 57.211897 65.012558 68.051138 76.775357 86.912578 76.775357 C 105.789475 76.775357 116.760101 65.012558 116.760101 48.925655 C 116.760101 32.842616 105.789475 21.099138 86.912578 21.099138 Z M 130.211581 21.099138 C 124.49248 21.099138 121.717944 24.646526 121.717944 30.068079 L 121.717944 67.033564 C 121.717944 72.451253 124.49248 75.998641 130.211581 75.998641 L 155.889571 75.998641 C 160.062969 75.998641 163.478972 72.601959 163.478972 68.428561 C 163.478972 64.239706 160.062969 60.83916 155.889571 60.83916 L 138.728404 60.83916 L 138.728404 30.068079 C 138.728404 24.646526 135.953867 21.099138 130.211581 21.099138 Z M 191.92377 21.099138 C 191.773064 21.099138 191.695779 21.099138 191.545073 21.099138 C 188.299096 21.099138 185.350668 23.023538 184.048413 26.045388 L 165.944368 64.56044 C 165.322223 65.785409 165.020811 67.033564 165.020811 68.258534 C 165.020811 72.903371 168.888932 76.775357 173.533769 76.775357 C 177.085022 76.775357 180.029586 75.22579 181.254555 71.829108 L 183.352847 65.955437 L 200.135317 65.955437 L 202.137002 71.829108 C 203.381293 75.22579 206.306535 76.775357 209.877109 76.775357 C 214.502625 76.775357 218.370747 72.903371 218.370747 68.258534 C 218.370747 67.033564 218.069335 65.785409 217.447189 64.56044 L 199.362465 26.045388 C 197.963604 23.100823 195.169746 21.249844 191.92377 21.099138 Z M 195.567764 52.797641 L 187.901078 52.797641 L 191.773064 41.827014 Z M 228.116403 21.099138 C 223.641594 21.099138 219.920314 24.797232 219.920314 29.140658 C 219.920314 30.539519 220.22559 31.764488 220.998442 33.012643 L 236.157923 58.988181 L 236.157923 67.806416 C 236.157923 73.224105 238.951781 76.775357 244.674746 76.775357 C 250.393847 76.775357 253.168383 73.224105 253.168383 67.806416 L 253.168383 58.988181 L 268.327865 33.012643 C 269.10458 31.764488 269.405992 30.369491 269.405992 28.989952 C 269.405992 24.646526 265.704034 21.099138 261.209903 21.099138 C 257.813221 21.099138 255.340096 22.648705 254.095805 25.272536 L 244.674746 45.227561 L 235.234365 25.272536 C 233.98621 22.648705 231.513086 21.099138 228.116403 21.099138 Z M 228.116403 21.099138 " stroke="#04182d" stroke-width="1.401666" stroke-opacity="1" stroke-miterlimit="4"/></svg>