<svg xmlns="http://www.w3.org/2000/svg" xmlns:xlink="http://www.w3.org/1999/xlink" zoomAndPan="magnify" viewBox="0 0 410.25 375.749989" height="300" preserveAspectRatio="xMidYMid meet" version="1.0"><defs><clipPath id="93533ad82b"><path d="M 38 0.21875 L 374.390625 0.21875 L 374.390625 375.28125 L 38 375.28125 Z M 38 0.21875 " clip-rule="nonzero"/></clipPath><clipPath id="1e6483493e"><path d="M 93 0.21875 L 374.390625 0.21875 L 374.390625 370 L 93 370 Z M 93 0.21875 " clip-rule="nonzero"/></clipPath></defs><g clip-path="url(#93533ad82b)"><path fill="#fbeeec" d="M 374.351562 15.226562 L 374.351562 354.851562 C 374.351562 363.140625 367.636719 369.859375 359.351562 369.859375 L 226.136719 369.859375 C 225.851562 369.914062 225.574219 369.949219 225.300781 369.957031 L 226.011719 369.957031 C 227.488281 369.957031 228.6875 371.15625 228.6875 372.636719 C 228.6875 374.117188 227.488281 375.316406 226.011719 375.316406 L 64.65625 375.316406 C 62.550781 375.316406 60.679688 373.972656 60.003906 371.976562 L 38.179688 307.425781 C 37.585938 305.667969 38.890625 303.847656 40.742188 303.847656 L 79.226562 303.847656 C 96.324219 285.230469 118.867188 265.601562 118.867188 265.601562 L 119.601562 258.304688 L 118.9375 257.644531 C 118.152344 256.859375 118.152344 255.582031 118.9375 254.792969 L 119.832031 253.902344 L 119.832031 250.835938 C 119.832031 248.714844 120.679688 246.6875 122.1875 245.199219 L 128.269531 239.210938 C 130.023438 237.484375 132.726562 237.324219 134.679688 238.714844 C 135.355469 233.058594 136.109375 227.875 136.90625 224.300781 C 139.140625 214.285156 148.691406 209.023438 157.773438 207.1875 L 157.773438 105.714844 L 120.746094 105.714844 L 106.136719 120.332031 L 142.148438 120.332031 L 142.148438 173.421875 L 130.042969 173.421875 L 130.042969 188.46875 L 115.007812 173.421875 L 38.035156 173.421875 L 38.035156 120.332031 L 105.710938 120.332031 L 105.710938 105.714844 L 93.601562 105.714844 L 93.601562 52.625 L 157.769531 52.625 L 157.769531 15.226562 C 157.769531 6.9375 164.484375 0.21875 172.769531 0.21875 L 359.351562 0.21875 C 367.636719 0.21875 374.351562 6.9375 374.351562 15.226562 Z M 374.351562 15.226562 " fill-opacity="1" fill-rule="nonzero"/></g><g clip-path="url(#1e6483493e)"><path fill="#f26b6d" d="M 194.484375 347.40625 C 194.550781 347.640625 194.597656 347.808594 194.597656 347.851562 C 194.597656 347.878906 194.554688 347.902344 194.488281 347.921875 Z M 157.769531 207.1875 C 160.726562 206.589844 163.632812 206.351562 166.21875 206.433594 C 168.261719 206.5 170.148438 206.753906 171.90625 207.191406 L 171.90625 105.714844 L 157.769531 105.714844 Z M 374.351562 15.226562 L 374.351562 354.851562 C 374.351562 363.140625 367.636719 369.859375 359.351562 369.859375 L 226.136719 369.859375 C 229.757812 369.175781 233.925781 364.539062 233.925781 356.820312 C 233.929688 350.964844 231.796875 338.980469 228.253906 326.082031 L 360.214844 326.082031 L 360.214844 15.570312 L 171.90625 15.570312 L 171.90625 52.625 L 157.769531 52.625 L 157.769531 15.226562 C 157.769531 6.9375 164.484375 0.21875 172.769531 0.21875 L 359.351562 0.21875 C 367.636719 0.21875 374.351562 6.9375 374.351562 15.226562 Z M 281.160156 347.820312 C 281.160156 339.480469 274.398438 332.714844 266.058594 332.714844 C 257.722656 332.714844 250.960938 339.476562 250.960938 347.820312 C 250.960938 356.164062 257.722656 362.929688 266.058594 362.929688 C 274.398438 362.929688 281.160156 356.164062 281.160156 347.820312 Z M 140.261719 261.644531 C 140.296875 261.636719 140.328125 261.617188 140.367188 261.613281 L 140.949219 261.523438 C 141.515625 261.4375 142.023438 261.683594 142.335938 262.082031 L 145.660156 258.757812 L 145.660156 258.371094 C 145.246094 258.078125 144.855469 257.761719 144.476562 257.429688 Z M 135.230469 239.140625 L 136.1875 240.046875 L 139.441406 236.792969 L 139.441406 234.28125 L 134.867188 238.859375 C 134.988281 238.953125 135.117188 239.03125 135.230469 239.140625 Z M 135.921875 265.988281 L 137.101562 264.808594 L 135.839844 268.582031 L 134.277344 270.144531 C 133.492188 270.929688 132.214844 270.929688 131.429688 270.144531 L 119.601562 258.304688 L 118.9375 257.644531 C 118.152344 256.859375 118.152344 255.582031 118.9375 254.792969 L 122.332031 251.398438 L 124.039062 251.398438 C 124.339844 251.398438 124.628906 251.347656 124.925781 251.316406 L 123.09375 253.148438 Z M 129.285156 261.507812 C 129.285156 260.558594 128.519531 259.789062 127.570312 259.789062 C 126.621094 259.789062 125.851562 260.558594 125.851562 261.507812 C 125.851562 262.457031 126.621094 263.226562 127.570312 263.226562 C 128.519531 263.226562 129.285156 262.457031 129.285156 261.507812 Z M 100.945312 332.21875 C 96.878906 332.21875 93.585938 335.515625 93.585938 339.582031 C 93.585938 343.648438 96.878906 346.945312 100.945312 346.945312 C 105.007812 346.945312 108.304688 343.648438 108.304688 339.582031 C 108.304688 335.515625 105.007812 332.21875 100.945312 332.21875 Z M 100.945312 332.21875 " fill-opacity="1" fill-rule="nonzero"/></g><path fill="#f3bbc1" d="M 303.878906 159.472656 L 303.878906 192.019531 C 292.890625 198.835938 279.9375 202.78125 266.058594 202.78125 C 252.183594 202.78125 239.230469 198.835938 228.242188 192.019531 L 228.242188 159.472656 C 228.242188 147.796875 236.8125 137.894531 248.363281 136.230469 L 255.160156 135.25 L 255.160156 129.492188 C 249.960938 125.980469 246.535156 120.03125 246.535156 113.28125 L 246.535156 107.054688 C 246.535156 96.265625 255.277344 87.519531 266.058594 87.519531 C 276.84375 87.519531 285.582031 96.265625 285.582031 107.054688 L 285.582031 113.28125 C 285.582031 120.03125 282.160156 125.980469 276.957031 129.492188 L 276.957031 135.25 L 283.753906 136.230469 C 295.304688 137.894531 303.878906 147.796875 303.878906 159.472656 Z M 131.429688 270.144531 L 119.601562 258.308594 L 118.863281 265.601562 L 131.585938 272.890625 L 135.839844 268.582031 L 134.277344 270.144531 C 133.492188 270.929688 132.214844 270.929688 131.429688 270.144531 Z M 140.949219 261.523438 L 140.367188 261.613281 C 140.328125 261.621094 140.296875 261.640625 140.261719 261.644531 C 138.886719 261.898438 137.75 262.863281 137.304688 264.195312 L 137.101562 264.808594 L 135.839844 268.582031 L 139.304688 268.101562 C 139.851562 268.023438 140.34375 267.789062 140.765625 267.46875 C 141.285156 267.070312 141.6875 266.527344 141.878906 265.875 L 142.597656 263.40625 C 142.738281 262.917969 142.613281 262.4375 142.335938 262.082031 C 142.023438 261.683594 141.515625 261.4375 140.949219 261.523438 Z M 135.230469 239.140625 C 135.117188 239.03125 134.988281 238.953125 134.867188 238.859375 C 134.804688 238.808594 134.742188 238.757812 134.679688 238.714844 C 132.726562 237.324219 130.023438 237.484375 128.269531 239.210938 L 122.1875 245.199219 C 120.679688 246.6875 119.828125 248.714844 119.828125 250.835938 L 119.828125 253.902344 L 122.332031 251.398438 L 124.039062 251.398438 C 124.339844 251.398438 124.628906 251.347656 124.925781 251.316406 C 126.652344 251.125 128.285156 250.421875 129.570312 249.226562 L 136.28125 243 C 137.109375 242.230469 137.117188 240.921875 136.292969 240.144531 L 136.1875 240.046875 Z M 177.375 232.769531 C 175.796875 232.992188 174.488281 233.542969 173.410156 234.222656 L 163.667969 222.597656 C 155.433594 228.136719 144.347656 229.769531 139.4375 230.238281 L 139.4375 246.328125 C 139.4375 250.753906 141.394531 254.71875 144.476562 257.429688 C 144.851562 257.761719 145.246094 258.078125 145.660156 258.371094 L 145.660156 267.515625 L 169.882812 267.515625 L 169.882812 258.371094 C 173.160156 256.03125 175.4375 252.394531 175.96875 248.207031 C 178.355469 247.675781 182.203125 246.09375 183.976562 241.355469 C 185.414062 237.523438 183.308594 231.933594 177.375 232.769531 Z M 130.042969 188.46875 L 115.003906 173.421875 L 38.035156 173.421875 L 38.035156 120.332031 L 105.710938 120.332031 L 105.710938 120.761719 L 106.136719 120.332031 L 142.148438 120.332031 L 142.148438 173.421875 L 130.042969 173.421875 Z M 49.265625 135.453125 L 131.3125 135.453125 L 131.3125 133.675781 L 49.265625 133.675781 Z M 49.265625 148.472656 L 131.3125 148.472656 L 131.3125 146.695312 L 49.265625 146.695312 Z M 131.3125 161.488281 L 131.3125 159.710938 L 49.265625 159.710938 L 49.265625 161.488281 Z M 131.3125 161.488281 " fill-opacity="1" fill-rule="nonzero"/><path fill="#7b95f9" d="M 273.832031 240.382812 C 273.832031 244.675781 270.351562 248.15625 266.0625 248.15625 C 261.769531 248.15625 258.289062 244.675781 258.289062 240.382812 C 258.289062 236.085938 261.769531 232.605469 266.0625 232.605469 C 270.351562 232.605469 273.832031 236.085938 273.832031 240.382812 Z M 230.546875 232.605469 C 226.257812 232.605469 222.777344 236.085938 222.777344 240.382812 C 222.777344 244.675781 226.257812 248.15625 230.546875 248.15625 C 234.839844 248.15625 238.320312 244.675781 238.320312 240.382812 C 238.320312 236.085938 234.839844 232.605469 230.546875 232.605469 Z M 301.570312 232.605469 C 297.28125 232.605469 293.800781 236.085938 293.800781 240.382812 C 293.800781 244.675781 297.28125 248.15625 301.570312 248.15625 C 305.863281 248.15625 309.34375 244.675781 309.34375 240.382812 C 309.34375 236.085938 305.863281 232.605469 301.570312 232.605469 Z M 228.253906 326.082031 C 231.796875 338.980469 233.929688 350.964844 233.929688 356.824219 C 233.925781 364.539062 229.757812 369.175781 226.136719 369.859375 C 225.855469 369.914062 225.574219 369.953125 225.300781 369.957031 L 168.046875 369.957031 L 160.769531 348.433594 L 146.824219 307.1875 C 146.148438 305.191406 144.277344 303.851562 142.171875 303.851562 L 79.226562 303.851562 C 96.324219 285.230469 118.863281 265.601562 118.863281 265.601562 L 131.585938 272.890625 L 135.839844 268.582031 L 139.304688 268.101562 C 139.851562 268.023438 140.34375 267.792969 140.761719 267.46875 C 142.402344 267.515625 144.042969 267.535156 145.660156 267.519531 L 169.882812 267.519531 C 169.882812 267.519531 185.925781 267.988281 199.207031 275.261719 C 203.28125 277.492188 207.101562 280.355469 210.113281 284.054688 C 217.417969 293.027344 223.902344 310.246094 228.253906 326.082031 Z M 194.597656 347.851562 C 194.597656 347.808594 194.550781 347.640625 194.484375 347.40625 L 194.488281 347.921875 C 194.554688 347.898438 194.597656 347.878906 194.597656 347.851562 Z M 105.710938 105.714844 L 93.601562 105.714844 L 93.601562 52.625 L 197.714844 52.625 L 197.714844 105.714844 L 120.746094 105.714844 L 106.136719 120.332031 L 105.707031 120.761719 L 105.707031 105.714844 Z M 104.4375 67.746094 L 186.484375 67.746094 L 186.484375 65.96875 L 104.4375 65.96875 Z M 104.4375 80.761719 L 186.484375 80.761719 L 186.484375 78.988281 L 104.4375 78.988281 Z M 186.484375 93.78125 L 186.484375 92.003906 L 104.4375 92.003906 L 104.4375 93.78125 Z M 186.484375 93.78125 " fill-opacity="1" fill-rule="nonzero"/><path fill="#4724e3" d="M 337.9375 130.859375 C 337.9375 156.695312 324.316406 179.335938 303.878906 192.019531 L 303.878906 159.476562 C 303.878906 147.800781 295.304688 137.894531 283.753906 136.230469 L 276.957031 135.25 L 276.957031 129.492188 C 282.160156 125.980469 285.582031 120.03125 285.582031 113.28125 L 285.582031 107.054688 C 285.582031 96.269531 276.84375 87.523438 266.058594 87.523438 C 255.277344 87.523438 246.535156 96.269531 246.535156 107.054688 L 246.535156 113.28125 C 246.535156 120.03125 249.960938 125.980469 255.160156 129.492188 L 255.160156 135.25 L 248.363281 136.230469 C 236.816406 137.898438 228.242188 147.800781 228.242188 159.476562 L 228.242188 192.019531 C 207.800781 179.335938 194.183594 156.695312 194.183594 130.859375 C 194.183594 91.140625 226.363281 58.941406 266.058594 58.941406 C 305.757812 58.941406 337.9375 91.140625 337.9375 130.859375 Z M 188.152344 223.277344 C 184.214844 214.132812 179.21875 209.011719 171.90625 207.191406 C 170.148438 206.753906 168.261719 206.5 166.21875 206.4375 C 163.632812 206.351562 160.726562 206.589844 157.769531 207.1875 C 148.6875 209.023438 139.140625 214.285156 136.90625 224.300781 C 136.109375 227.875 135.355469 233.058594 134.679688 238.714844 C 134.742188 238.757812 134.804688 238.808594 134.863281 238.859375 L 139.4375 234.28125 L 139.4375 230.238281 C 144.347656 229.769531 155.433594 228.136719 163.667969 222.597656 L 173.410156 234.226562 C 174.488281 233.542969 175.796875 232.992188 177.375 232.769531 C 183.308594 231.933594 185.414062 237.523438 183.976562 241.359375 C 182.203125 246.09375 178.355469 247.675781 175.96875 248.207031 C 175.4375 252.398438 173.160156 256.035156 169.882812 258.371094 L 169.882812 267.519531 C 169.882812 267.519531 185.925781 267.988281 199.207031 275.261719 C 200.714844 271.96875 201.164062 268.152344 200.15625 264.320312 C 196.136719 249.078125 190.675781 229.136719 188.152344 223.277344 Z M 142.59375 263.40625 L 141.878906 265.875 C 141.6875 266.527344 141.28125 267.070312 140.761719 267.46875 C 142.402344 267.515625 144.042969 267.535156 145.660156 267.515625 L 145.660156 258.757812 L 142.335938 262.082031 C 142.613281 262.4375 142.738281 262.914062 142.59375 263.40625 Z M 49.265625 135.453125 L 131.3125 135.453125 L 131.3125 133.675781 L 49.265625 133.675781 Z M 49.265625 148.472656 L 131.3125 148.472656 L 131.3125 146.695312 L 49.265625 146.695312 Z M 49.265625 161.488281 L 131.3125 161.488281 L 131.3125 159.710938 L 49.265625 159.710938 Z M 186.484375 65.96875 L 104.4375 65.96875 L 104.4375 67.746094 L 186.484375 67.746094 Z M 186.484375 78.984375 L 104.4375 78.984375 L 104.4375 80.761719 L 186.484375 80.761719 Z M 186.484375 92.003906 L 104.4375 92.003906 L 104.4375 93.78125 L 186.484375 93.78125 Z M 186.484375 92.003906 " fill-opacity="1" fill-rule="nonzero"/></svg>