<svg xmlns="http://www.w3.org/2000/svg" xmlns:xlink="http://www.w3.org/1999/xlink" width="500" zoomAndPan="magnify" viewBox="0 0 375 374.999991" height="500" preserveAspectRatio="xMidYMid meet" version="1.0"><defs><clipPath id="7bfac33123"><path d="M 0.9375 0 L 375 0 L 375 375 L 0.9375 375 Z M 0.9375 0 " clip-rule="nonzero"/></clipPath></defs><rect x="-37.5" width="450" fill="#ffffff" y="-37.499999" height="449.999989" fill-opacity="1"/><rect x="-37.5" width="450" fill="#04182d" y="-37.499999" height="449.999989" fill-opacity="1"/><g clip-path="url(#7bfac33123)"><path fill="#7ac9fa" d="M 375.136719 152.164062 L 375.136719 187.964844 C 375.136719 204.414062 361.8125 217.800781 345.433594 217.800781 C 329.058594 217.800781 315.734375 204.414062 315.734375 187.964844 L 315.734375 161.875 C 315.71875 161.582031 315.566406 161.332031 315.566406 161.035156 C 315.566406 88.691406 258.277344 29.832031 187.855469 29.832031 C 119.058594 29.832031 62.945312 86.042969 60.390625 156.09375 L 60.390625 193.933594 C 60.390625 213.675781 76.378906 229.734375 96.03125 229.734375 C 102.589844 229.734375 107.914062 235.078125 107.914062 241.667969 C 107.914062 248.261719 102.589844 253.601562 96.03125 253.601562 C 71.003906 253.601562 49.644531 237.921875 40.910156 215.867188 C 37.710938 217.054688 34.296875 217.800781 30.691406 217.800781 C 14.3125 217.800781 0.988281 204.414062 0.988281 187.96875 L 0.988281 152.164062 C 0.988281 135.710938 14.3125 122.328125 30.691406 122.328125 C 32.207031 122.328125 33.667969 122.554688 35.121094 122.777344 C 51.976562 52.425781 113.964844 0 187.855469 0 C 261.761719 0 323.761719 52.441406 340.597656 122.816406 C 342.183594 122.554688 343.777344 122.328125 345.433594 122.328125 C 361.8125 122.328125 375.136719 135.714844 375.136719 152.164062 Z M 285.792969 161.039062 C 285.792969 106.707031 241.941406 62.65625 187.855469 62.65625 C 133.769531 62.65625 89.925781 106.707031 89.925781 161.039062 C 89.925781 215.375 133.769531 259.417969 187.855469 259.417969 C 241.941406 259.421875 285.792969 215.375 285.792969 161.039062 Z M 285.347656 289.257812 L 250.480469 289.257812 C 242.71875 289.257812 235.449219 293.066406 231.003906 299.457031 L 206.628906 334.507812 C 197.09375 348.21875 176.84375 348.082031 167.492188 334.246094 L 144.15625 299.71875 C 139.734375 293.171875 132.371094 289.253906 124.5 289.253906 L 90.261719 289.253906 C 46.164062 289.253906 10.414062 325.164062 10.414062 369.46875 L 10.414062 405.0625 C 10.414062 411.65625 15.734375 416.996094 22.296875 416.996094 L 353.316406 416.996094 C 359.875 416.996094 365.195312 411.652344 365.195312 405.0625 L 365.195312 369.46875 C 365.191406 325.167969 329.445312 289.257812 285.347656 289.257812 Z M 285.347656 289.257812 " fill-opacity="1" fill-rule="nonzero"/></g></svg>