<svg xmlns="http://www.w3.org/2000/svg" xmlns:xlink="http://www.w3.org/1999/xlink" width="150" zoomAndPan="magnify" viewBox="0 0 187.5 112.499997" preserveAspectRatio="xMidYMid meet" version="1.0"><defs><g/><clipPath id="91b51c6c4b"><path d="M 6.054688 13.046875 L 21 13.046875 L 21 28 L 6.054688 28 Z M 6.054688 13.046875 " clip-rule="nonzero"/></clipPath><clipPath id="4d6dc070d8"><path d="M 6.054688 13.046875 L 24 13.046875 L 24 36 L 6.054688 36 Z M 6.054688 13.046875 " clip-rule="nonzero"/></clipPath><clipPath id="d8d75040c1"><path d="M 11 35 L 19 35 L 19 37.003906 L 11 37.003906 Z M 11 35 " clip-rule="nonzero"/></clipPath></defs><g clip-path="url(#91b51c6c4b)"><path fill="#ffbd59" d="M 20.953125 20.296875 C 20.953125 20.769531 20.902344 21.242188 20.808594 21.710938 C 20.714844 22.175781 20.570312 22.628906 20.386719 23.070312 C 20.199219 23.507812 19.96875 23.925781 19.699219 24.324219 C 19.425781 24.71875 19.117188 25.085938 18.773438 25.421875 C 18.425781 25.757812 18.050781 26.058594 17.644531 26.324219 C 17.238281 26.585938 16.8125 26.8125 16.359375 26.992188 C 15.910156 27.175781 15.441406 27.3125 14.964844 27.40625 C 14.484375 27.5 14 27.542969 13.511719 27.542969 C 13.023438 27.542969 12.539062 27.5 12.0625 27.40625 C 11.582031 27.3125 11.117188 27.175781 10.667969 26.992188 C 10.214844 26.8125 9.785156 26.585938 9.378906 26.324219 C 8.972656 26.058594 8.597656 25.757812 8.253906 25.421875 C 7.90625 25.085938 7.601562 24.71875 7.328125 24.324219 C 7.058594 23.925781 6.828125 23.507812 6.640625 23.070312 C 6.453125 22.628906 6.3125 22.175781 6.21875 21.710938 C 6.121094 21.242188 6.074219 20.769531 6.074219 20.296875 C 6.074219 19.820312 6.121094 19.347656 6.21875 18.878906 C 6.3125 18.414062 6.453125 17.960938 6.640625 17.519531 C 6.828125 17.082031 7.058594 16.664062 7.328125 16.265625 C 7.601562 15.871094 7.90625 15.503906 8.253906 15.167969 C 8.597656 14.832031 8.972656 14.53125 9.378906 14.265625 C 9.785156 14.003906 10.214844 13.78125 10.667969 13.597656 C 11.117188 13.414062 11.582031 13.277344 12.0625 13.183594 C 12.539062 13.09375 13.023438 13.046875 13.511719 13.046875 C 14 13.046875 14.484375 13.09375 14.964844 13.183594 C 15.441406 13.277344 15.910156 13.414062 16.359375 13.597656 C 16.8125 13.78125 17.238281 14.003906 17.644531 14.265625 C 18.050781 14.53125 18.425781 14.832031 18.773438 15.167969 C 19.117188 15.503906 19.425781 15.871094 19.699219 16.265625 C 19.96875 16.664062 20.199219 17.082031 20.386719 17.519531 C 20.570312 17.960938 20.714844 18.414062 20.808594 18.878906 C 20.902344 19.347656 20.953125 19.820312 20.953125 20.296875 Z M 20.953125 20.296875 " fill-opacity="1" fill-rule="nonzero"/></g><g clip-path="url(#4d6dc070d8)"><path fill="#ffffff" d="M 19.355469 35.5625 L 10.988281 35.5625 C 10.847656 35.5625 10.730469 35.449219 10.730469 35.3125 L 10.730469 30.65625 C 10.730469 29.851562 10.351562 29.097656 9.6875 28.582031 C 7.304688 26.738281 6.078125 23.871094 6.398438 20.90625 C 6.84375 16.835938 10.347656 13.550781 14.546875 13.269531 C 17.023438 13.101562 19.386719 13.914062 21.191406 15.558594 C 22.976562 17.179688 23.996094 19.472656 23.996094 21.847656 C 23.996094 24.488281 22.777344 26.945312 20.652344 28.589844 C 19.992188 29.097656 19.613281 29.851562 19.613281 30.65625 L 19.613281 35.3125 C 19.613281 35.449219 19.5 35.5625 19.355469 35.5625 Z M 11.246094 35.0625 L 19.101562 35.0625 L 19.101562 30.65625 C 19.101562 29.695312 19.546875 28.800781 20.332031 28.195312 C 22.335938 26.648438 23.484375 24.335938 23.484375 21.847656 C 23.484375 19.613281 22.519531 17.453125 20.839844 15.925781 C 19.140625 14.378906 16.917969 13.613281 14.582031 13.769531 C 10.628906 14.035156 7.332031 17.128906 6.910156 20.960938 C 6.609375 23.75 7.765625 26.453125 10.007812 28.191406 C 10.796875 28.800781 11.246094 29.699219 11.246094 30.65625 Z M 11.246094 35.0625 " fill-opacity="1" fill-rule="nonzero"/></g><g clip-path="url(#d8d75040c1)"><path fill="#ffffff" d="M 15.109375 37.003906 C 13.285156 37.003906 11.851562 36.261719 11.851562 35.3125 C 11.851562 35.171875 11.96875 35.0625 12.109375 35.0625 C 12.25 35.0625 12.367188 35.171875 12.367188 35.3125 C 12.367188 35.875 13.492188 36.5 15.109375 36.5 C 16.726562 36.5 17.855469 35.875 17.855469 35.3125 C 17.855469 35.171875 17.96875 35.0625 18.113281 35.0625 C 18.253906 35.0625 18.371094 35.171875 18.371094 35.3125 C 18.371094 36.261719 16.9375 37.003906 15.109375 37.003906 Z M 15.109375 37.003906 " fill-opacity="1" fill-rule="nonzero"/></g><path fill="#ffffff" d="M 9.992188 30.90625 C 9.859375 30.90625 9.746094 30.804688 9.738281 30.671875 C 9.726562 30.535156 9.832031 30.414062 9.976562 30.40625 L 20.335938 29.707031 C 20.480469 29.699219 20.601562 29.800781 20.609375 29.9375 C 20.621094 30.078125 20.511719 30.195312 20.371094 30.207031 L 10.011719 30.90625 C 10.003906 30.90625 10 30.90625 9.992188 30.90625 Z M 9.992188 30.90625 " fill-opacity="1" fill-rule="nonzero"/><path fill="#ffffff" d="M 9.992188 32.511719 C 9.859375 32.511719 9.746094 32.410156 9.738281 32.277344 C 9.726562 32.140625 9.832031 32.019531 9.976562 32.007812 L 20.335938 31.308594 C 20.480469 31.300781 20.601562 31.40625 20.609375 31.542969 C 20.621094 31.679688 20.511719 31.800781 20.371094 31.808594 L 10.011719 32.511719 C 10.003906 32.511719 10 32.511719 9.992188 32.511719 Z M 9.992188 32.511719 " fill-opacity="1" fill-rule="nonzero"/><path fill="#ffffff" d="M 9.992188 34.113281 C 9.859375 34.113281 9.746094 34.015625 9.738281 33.882812 C 9.726562 33.742188 9.832031 33.625 9.976562 33.613281 L 20.335938 32.914062 C 20.480469 32.90625 20.601562 33.007812 20.609375 33.148438 C 20.621094 33.285156 20.511719 33.40625 20.371094 33.414062 L 10.011719 34.113281 C 10.003906 34.113281 10 34.113281 9.992188 34.113281 Z M 9.992188 34.113281 " fill-opacity="1" fill-rule="nonzero"/><path stroke-linecap="butt" transform="matrix(0.562958, 0, 0, 0.562958, 0.165932, 26.269184)" fill="none" stroke-linejoin="miter" d="M 26.114286 21.101479 C 21.014276 21.101479 18.391413 24.348833 18.391413 29.289252 L 18.391413 68.583622 C 18.391413 73.378326 21.014276 76.771395 26.114286 76.771395 C 31.228175 76.771395 33.857977 73.378326 33.857977 68.583622 L 33.857977 29.289252 C 33.857977 24.348833 31.228175 21.101479 26.114286 21.101479 Z M 26.114286 21.101479 " stroke="#ffffff" stroke-width="1.401668" stroke-opacity="1" stroke-miterlimit="4"/><g fill="#7ac9fa" fill-opacity="1"><g transform="translate(22.386709, 74.842304)"><g><path d="M 8.6875 -44.0625 C 4.59375 -44.0625 2.484375 -41.457031 2.484375 -37.484375 L 2.484375 -5.957031 C 2.484375 -2.109375 4.59375 0.621094 8.6875 0.621094 C 12.785156 0.621094 14.894531 -2.109375 14.894531 -5.957031 L 14.894531 -37.484375 C 14.894531 -41.457031 12.785156 -44.0625 8.6875 -44.0625 Z M 8.6875 -44.0625 "/></g></g></g><g fill="#ff8bd2" fill-opacity="1"><g transform="translate(159.882244, 77.894729)"><g><path d="M -11.125 -43.511719 C -14.820312 -41.75 -15.605469 -38.488281 -13.894531 -34.902344 L -0.324219 -6.445312 C 1.332031 -2.972656 4.414062 -1.417969 8.109375 -3.179688 C 11.808594 -4.941406 12.535156 -8.316406 10.878906 -11.789062 L -2.691406 -40.246094 C -4.402344 -43.832031 -7.425781 -45.273438 -11.125 -43.511719 Z M -11.125 -43.511719 "/></g></g></g><g fill="#ffbd59" fill-opacity="1"><g transform="translate(124.353171, 73.808192)"><g><path d="M -44.0625 -8.6875 C -44.0625 -4.59375 -41.457031 -2.484375 -37.484375 -2.484375 L -5.957031 -2.484375 C -2.109375 -2.484375 0.621094 -4.59375 0.621094 -8.6875 C 0.621094 -12.785156 -2.109375 -14.894531 -5.957031 -14.894531 L -37.484375 -14.894531 C -41.457031 -14.894531 -44.0625 -12.785156 -44.0625 -8.6875 Z M -44.0625 -8.6875 "/></g></g></g><path stroke-linecap="butt" transform="matrix(0.748672, 0, 0, 0.748672, 24.97551, 26.269187)" fill="none" stroke-linejoin="miter" d="M 8.714745 16.717549 C 4.415468 16.717549 2.328441 19.383726 2.328441 23.458647 L 2.328441 51.837003 C 2.328441 55.911924 4.415468 58.583319 8.714745 58.583319 C 13.034892 58.583319 15.121919 55.911924 15.121919 51.837003 L 15.121919 43.348019 L 19.535982 43.348019 L 29.772852 56.141497 C 30.936369 57.644157 32.793824 58.583319 34.766065 58.583319 C 38.147049 58.583319 40.943666 55.786702 40.943666 52.306584 C 40.943666 50.903058 40.474085 49.509967 39.54014 48.346449 L 31.045938 37.639999 L 39.54014 26.949201 C 40.474085 25.785683 40.943666 24.39781 40.943666 22.989066 C 40.943666 19.498513 38.147049 16.717549 34.766065 16.717549 C 33.033832 16.717549 31.045938 17.526272 29.772852 19.159371 L 19.535982 31.947631 L 15.121919 31.947631 L 15.121919 23.458647 C 15.121919 19.383726 13.034892 16.717549 8.714745 16.717549 Z M 65.346234 27.987497 C 71.398614 27.987497 75.003954 31.832845 75.003954 37.639999 C 75.003954 43.462805 71.398614 47.182932 65.346234 47.182932 C 59.299072 47.182932 55.824171 43.462805 55.824171 37.639999 C 55.824171 31.832845 59.299072 27.987497 65.346234 27.987497 Z M 65.346234 16.717549 C 51.164883 16.717549 43.015041 25.545675 43.015041 37.639999 C 43.015041 49.73954 51.164883 58.583319 65.346234 58.583319 C 79.543238 58.583319 87.792214 49.73954 87.792214 37.639999 C 87.792214 25.545675 79.543238 16.717549 65.346234 16.717549 Z M 97.903862 16.717549 C 93.604585 16.717549 91.517558 19.383726 91.517558 23.458647 L 91.517558 51.257853 C 91.517558 55.332774 93.604585 57.998951 97.903862 57.998951 L 117.214083 57.998951 C 120.349842 57.998951 122.916886 55.442343 122.916886 52.306584 C 122.916886 49.155173 120.349842 46.598564 117.214083 46.598564 L 104.305819 46.598564 L 104.305819 23.458647 C 104.305819 19.383726 102.218791 16.717549 97.903862 16.717549 Z M 144.303699 16.717549 C 144.188913 16.717549 144.131519 16.717549 144.016733 16.717549 C 141.574911 16.717549 139.362662 18.162815 138.381759 20.437675 L 124.769122 49.395181 C 124.299541 50.31869 124.069968 51.257853 124.069968 52.181362 C 124.069968 55.671916 126.981371 58.583319 130.477142 58.583319 C 133.14332 58.583319 135.360787 57.419801 136.284296 54.863193 L 137.860002 50.44913 L 150.476083 50.44913 L 151.98396 54.863193 C 152.917905 57.419801 155.119719 58.583319 157.801549 58.583319 C 161.281667 58.583319 164.19307 55.671916 164.19307 52.181362 C 164.19307 51.257853 163.963497 50.31869 163.499134 49.395181 L 149.896933 20.437675 C 148.848201 18.220209 146.745521 16.827118 144.303699 16.717549 Z M 147.042923 40.551402 L 141.277509 40.551402 L 144.188913 32.302426 Z M 171.513319 16.717549 C 168.147987 16.717549 165.351371 19.498513 165.351371 22.764711 C 165.351371 23.813442 165.580944 24.736952 166.160094 25.676114 L 177.560481 45.210691 L 177.560481 51.837003 C 177.560481 55.911924 179.663161 58.583319 183.962438 58.583319 C 188.266932 58.583319 190.353959 55.911924 190.353959 51.837003 L 190.353959 45.210691 L 201.754347 25.676114 C 202.333497 24.736952 202.56307 23.68822 202.56307 22.649924 C 202.56307 19.383726 199.776888 16.717549 196.401121 16.717549 C 193.844513 16.717549 191.987058 17.881067 191.047896 19.853308 L 183.962438 34.859035 L 176.866544 19.853308 C 175.927382 17.881067 174.069928 16.717549 171.513319 16.717549 Z M 171.513319 16.717549 " stroke="#ffffff" stroke-width="1.053972" stroke-opacity="1" stroke-miterlimit="4"/></svg>