<svg xmlns="http://www.w3.org/2000/svg" xmlns:xlink="http://www.w3.org/1999/xlink" zoomAndPan="magnify" viewBox="0 0 300 299.999988" height="300" preserveAspectRatio="xMidYMid meet" version="1.0"><defs><clipPath id="41e3c81f89"><path d="M 114.03125 90.636719 L 300 90.636719 L 300 150.90625 L 114.03125 150.90625 Z M 114.03125 90.636719 " clip-rule="nonzero"/></clipPath></defs><path fill="#560c1b" d="M 282.878906 13.6875 C 280.425781 28.761719 236.027344 294.664062 235.933594 295.148438 C 235.394531 298 233.105469 300.007812 230.414062 300 L 60.347656 299.632812 C 56.660156 299.625 53.144531 298.117188 50.585938 295.46875 C 49.183594 294.015625 47.699219 292.40625 46.585938 291.019531 C 45.363281 289.5 45.042969 286.496094 46.039062 280.796875 L 98.972656 13.289062 C 99.253906 11.710938 100.792969 10.433594 102.40625 10.4375 L 272.765625 1.089844 C 278.40625 0.0078125 283.132812 12.101562 282.878906 13.6875 " fill-opacity="1" fill-rule="nonzero"/><path fill="#ffffff" d="M 276.394531 6.472656 C 275.914062 18.335938 248.335938 174.871094 235.992188 248.800781 C 234.804688 255.871094 233.75 262.175781 232.863281 267.5 C 230.910156 279.207031 229.742188 286.191406 229.726562 286.269531 C 229.191406 289.125 226.894531 291.128906 224.203125 291.121094 L 48.597656 290.742188 C 46.691406 290.730469 46.164062 283.855469 46.164062 283.855469 L 91.449219 10.742188 C 92.929688 0.933594 99.792969 1.554688 101.402344 1.5625 L 270.046875 1.089844 C 271.660156 1.101562 276.601562 1.359375 276.394531 6.472656 " fill-opacity="1" fill-rule="nonzero"/><path fill="#560c1b" d="M 47.027344 283.894531 C 47.261719 286.769531 48.03125 289.667969 48.625 289.886719 L 224.203125 290.265625 C 226.507812 290.265625 228.425781 288.558594 228.882812 286.109375 C 228.9375 285.828125 230.21875 278.160156 232.015625 267.359375 C 232.90625 262.035156 233.960938 255.730469 235.144531 248.660156 C 239.078125 225.117188 244.484375 193.605469 250.207031 160.246094 C 261.929688 91.914062 275.214844 14.46875 275.539062 6.4375 L 276.394531 6.472656 L 275.539062 6.4375 C 275.589844 5.121094 275.277344 4.128906 274.578125 3.398438 C 273.683594 2.460938 272.113281 1.957031 270.042969 1.945312 L 101.40625 2.417969 L 101.125 2.414062 C 99.0625 2.363281 93.59375 2.257812 92.296875 10.871094 Z M 224.21875 291.976562 C 224.199219 291.976562 48.597656 291.597656 48.597656 291.597656 C 46.25 291.585938 45.53125 286.78125 45.3125 283.921875 C 45.304688 283.855469 45.308594 283.785156 45.320312 283.71875 L 90.605469 10.601562 C 91.613281 3.914062 95.175781 0.578125 101.160156 0.703125 L 101.40625 0.707031 L 270.046875 0.238281 C 272.636719 0.25 274.574219 0.917969 275.816406 2.214844 C 276.839844 3.285156 277.320312 4.730469 277.25 6.507812 C 276.921875 14.648438 264.199219 88.8125 251.894531 160.535156 C 246.171875 193.894531 240.765625 225.402344 236.835938 248.945312 C 235.652344 256.015625 234.597656 262.316406 233.707031 267.640625 C 230.726562 285.507812 230.578125 286.386719 230.558594 286.472656 C 229.953125 289.695312 227.347656 291.976562 224.21875 291.976562 " fill-opacity="1" fill-rule="nonzero"/><path fill="#f0e3df" d="M 220.640625 206.316406 C 222.398438 206.316406 223.898438 205.035156 224.167969 203.300781 L 244.332031 72.660156 C 244.695312 71.066406 243.515625 69.578125 241.890625 69.578125 L 112.660156 69.578125 C 107.730469 69.578125 107.128906 70.445312 106.855469 71.652344 L 86.707031 202.195312 C 86.367188 204.359375 88.042969 206.316406 90.234375 206.316406 L 220.640625 206.316406 " fill-opacity="1" fill-rule="nonzero"/><path fill="#f0e3df" d="M 221.578125 217.792969 L 216.578125 249.691406 C 216.296875 250.898438 215.214844 251.761719 213.988281 251.761719 L 81.535156 251.761719 C 79.910156 251.761719 78.738281 250.28125 79.101562 248.683594 L 84.117188 216.675781 C 84.390625 214.90625 85.917969 213.597656 87.71875 213.597656 L 217.980469 213.597656 C 220.214844 213.597656 221.925781 215.59375 221.578125 217.792969 " fill-opacity="1" fill-rule="nonzero"/><path fill="#f0e3df" d="M 48.753906 267.898438 L 46.167969 283.398438 C 46.167969 283.398438 43.964844 290.195312 48.597656 290.277344 L 224.207031 290.660156 C 226.894531 290.664062 229.1875 288.65625 229.722656 285.84375 C 229.742188 285.726562 230.851562 279.089844 232.722656 267.898438 L 48.753906 267.898438 " fill-opacity="1" fill-rule="nonzero"/><path fill="#ffffff" d="M 137.515625 273.699219 C 130.101562 273.683594 130.0625 284.839844 137.492188 284.855469 C 144.90625 284.871094 144.941406 273.714844 137.515625 273.699219 " fill-opacity="1" fill-rule="nonzero"/><path fill="#560c1b" d="M 48.597656 289.421875 C 48.601562 289.421875 224.207031 289.804688 224.207031 289.804688 C 226.503906 289.804688 228.421875 288.09375 228.886719 285.644531 C 229.265625 283.515625 272.902344 25.410156 274.84375 10.152344 C 275.289062 6.683594 275.046875 4.476562 274.121094 3.402344 C 273.390625 2.5625 272.207031 2.367188 270.53125 2.335938 L 101.183594 1.949219 C 99.304688 1.925781 93.605469 1.859375 92.300781 10.410156 L 47.011719 283.535156 C 46.792969 285.195312 46.785156 288.230469 47.714844 289.175781 C 47.921875 289.386719 48.164062 289.46875 48.503906 289.425781 C 48.535156 289.425781 48.566406 289.421875 48.597656 289.421875 Z M 224.21875 291.511719 C 224.203125 291.511719 48.640625 291.132812 48.640625 291.132812 C 47.800781 291.210938 47.058594 290.953125 46.488281 290.375 C 44.679688 288.523438 45.246094 283.8125 45.320312 283.285156 L 90.609375 10.140625 C 91.621094 3.503906 95.195312 0.183594 101.203125 0.238281 L 101.40625 0.238281 L 270.550781 0.625 C 272.25 0.660156 274.148438 0.820312 275.414062 2.28125 C 276.699219 3.769531 277.058594 6.335938 276.546875 10.367188 C 274.738281 24.546875 230.894531 284.246094 230.570312 285.964844 C 229.949219 289.234375 227.339844 291.511719 224.21875 291.511719 " fill-opacity="1" fill-rule="nonzero"/><path fill="#ffffff" d="M 154.925781 23.175781 L 121.394531 23.175781 C 120.164062 23.175781 115.863281 24.042969 115.589844 25.246094 L 109.398438 57.394531 C 109.035156 58.988281 110.214844 60.472656 111.839844 60.472656 L 148.59375 60.472656 C 149.820312 60.472656 150.90625 59.605469 151.179688 58.402344 L 157.367188 26.253906 C 157.730469 24.664062 156.550781 23.175781 154.925781 23.175781 " fill-opacity="1" fill-rule="nonzero"/><path fill="#e5d3cf" d="M 121.394531 24.03125 C 119.984375 24.03125 116.765625 24.90625 116.40625 25.488281 L 110.238281 57.554688 C 110.117188 58.089844 110.234375 58.609375 110.546875 59.003906 C 110.859375 59.394531 111.332031 59.617188 111.839844 59.617188 L 148.59375 59.617188 C 149.421875 59.617188 150.15625 59.027344 150.34375 58.214844 L 156.527344 26.09375 C 156.648438 25.558594 156.535156 25.039062 156.21875 24.644531 C 155.90625 24.257812 155.4375 24.03125 154.925781 24.03125 Z M 148.59375 61.328125 L 111.839844 61.328125 C 110.808594 61.328125 109.847656 60.871094 109.210938 60.070312 C 108.566406 59.265625 108.332031 58.222656 108.5625 57.207031 L 114.746094 25.085938 C 115.234375 22.953125 120.808594 22.320312 121.394531 22.320312 L 154.925781 22.320312 C 155.960938 22.320312 156.917969 22.78125 157.558594 23.578125 C 158.199219 24.382812 158.433594 25.429688 158.203125 26.445312 L 152.019531 58.5625 C 151.652344 60.175781 150.214844 61.328125 148.59375 61.328125 " fill-opacity="1" fill-rule="nonzero"/><path fill="#b5613f" d="M 156.449219 64.609375 C 155.609375 64.394531 154.742188 64.238281 153.851562 64.15625 C 151.054688 63.890625 147.546875 64.171875 145.417969 62.152344 C 143.171875 60.019531 143 56.5 142.636719 53.601562 C 141.421875 43.957031 139.332031 33.734375 133.742188 25.589844 C 129.5 19.410156 120.246094 18 113.296875 18.234375 C 105.0625 18.515625 96.207031 21.148438 92.210938 28.152344 C 83.492188 43.433594 89.644531 55.824219 90.378906 69.1875 C 90.546875 72.289062 86.3125 74.492188 84.941406 77.085938 C 83.789062 79.273438 83.320312 81.558594 83.546875 83.992188 C 84.078125 89.757812 91.378906 94.425781 94.867188 99.007812 C 95.363281 99.660156 96.136719 99.773438 96.785156 99.570312 C 101.457031 102.402344 108.226562 102.3125 113.464844 102.644531 C 122.8125 103.234375 132.210938 103.183594 141.550781 102.503906 C 146.773438 102.121094 152.035156 101.882812 157.1875 100.953125 C 161.675781 100.140625 167.660156 98.960938 169.972656 94.832031 C 170.242188 94.351562 170.460938 93.839844 170.789062 93.394531 C 171 93.109375 171.253906 92.855469 171.453125 92.566406 C 174.582031 88.058594 172.082031 80.164062 169.765625 75.863281 C 167.027344 70.78125 162.398438 66.140625 156.449219 64.609375 " fill-opacity="1" fill-rule="nonzero"/><path fill="#f7946d" d="M 140.019531 81.945312 C 120.519531 76.734375 99.46875 80.003906 83.453125 92.574219 C 83.011719 92.917969 82.820312 93.324219 82.789062 93.726562 C 80.1875 97.296875 85.253906 106.140625 87.074219 108.957031 C 91.984375 116.574219 99.769531 123.53125 108.695312 125.898438 C 130.660156 131.722656 138.824219 101.714844 140.6875 85.335938 C 141.714844 84.429688 141.742188 82.40625 140.019531 81.945312 " fill-opacity="1" fill-rule="nonzero"/><path fill="#f7946d" d="M 101.125 55.152344 C 101.503906 61.1875 101.945312 67.183594 102.269531 73.179688 C 102.492188 77.335938 102.585938 80.308594 102.238281 82.507812 C 101.890625 84.703125 100.65625 85.949219 99.316406 86.996094 C 103.628906 91.144531 112.371094 90.875 117.925781 89.992188 C 123 89.183594 128.328125 86.175781 131.496094 82.125 C 130.441406 81.742188 128.886719 81.292969 127.871094 81.011719 C 127.167969 80.816406 126.621094 80.308594 126.402344 79.652344 C 125.574219 77.183594 125.832031 68.796875 125.449219 65.546875 C 124.855469 60.519531 123.664062 59.433594 123.136719 54.398438 C 123.097656 54.007812 122.863281 53.742188 122.570312 53.582031 C 120.789062 49.871094 116.582031 49.386719 112.667969 49.882812 C 108.792969 50.371094 103.324219 50.554688 100.480469 53.390625 C 99.785156 54.082031 100.375 55.011719 101.125 55.152344 " fill-opacity="1" fill-rule="nonzero"/><path fill="#f0e3df" d="M 251.25 23.261719 L 167.992188 23.261719 C 163.066406 23.261719 162.460938 24.128906 162.1875 25.332031 L 160.390625 34.722656 C 160.027344 36.316406 161.207031 37.800781 162.832031 37.800781 L 249.308594 37.800781 C 250.535156 37.800781 251.621094 36.933594 251.894531 35.730469 L 253.691406 26.339844 C 254.054688 24.746094 252.875 23.261719 251.25 23.261719 " fill-opacity="1" fill-rule="nonzero"/><path fill="#f0e3df" d="M 249.210938 41.03125 L 201.894531 41.03125 C 199.09375 41.03125 198.753906 41.523438 198.597656 42.207031 L 198.101562 44.285156 C 197.898438 45.191406 198.566406 46.035156 199.492188 46.035156 L 248.636719 46.035156 C 249.332031 46.035156 249.949219 45.542969 250.105469 44.859375 L 250.59375 42.78125 C 250.804688 41.875 250.132812 41.03125 249.210938 41.03125 " fill-opacity="1" fill-rule="nonzero"/><path fill="#d6b9b0" d="M 195.285156 210.75 C 190.503906 201.039062 186.484375 190.867188 180.582031 181.898438 C 179.9375 180.933594 178.960938 180.660156 178.0625 180.835938 C 163.96875 167.46875 151.355469 154.359375 130.726562 155.042969 C 122.519531 155.304688 114.421875 158.113281 107.761719 162.914062 C 105.289062 164.679688 97.660156 170.445312 97.808594 174.707031 C 97.710938 174.953125 97.652344 175.214844 97.632812 175.519531 C 97.125 187.03125 94.832031 198.960938 95.859375 210.75 C 97.109375 224.980469 97.964844 237.15625 99.316406 251.761719 L 209.183594 251.761719 C 209.183594 251.761719 202.972656 226.355469 195.285156 210.75 " fill-opacity="1" fill-rule="nonzero"/><path fill="#3d0a09" d="M 133.925781 51.914062 C 134.679688 55.3125 135.925781 58.625 137.070312 61.90625 C 138.179688 65.078125 139.011719 68.949219 142.304688 70.550781 C 144.089844 71.417969 146.097656 71.519531 148.019531 71.898438 C 150.414062 72.367188 152.542969 73.453125 154.351562 75.085938 C 158.351562 78.703125 159.976562 83.980469 160.832031 89.136719 C 160.992188 90.113281 162.480469 89.699219 162.316406 88.730469 C 160.875 80.023438 156.601562 71.710938 147.164062 70.195312 C 144.582031 69.78125 142.113281 69.394531 140.664062 66.945312 C 139.734375 65.371094 139.246094 63.464844 138.644531 61.742188 C 137.46875 58.378906 136.183594 54.988281 135.414062 51.503906 C 135.199219 50.535156 133.710938 50.945312 133.925781 51.914062 " fill-opacity="1" fill-rule="nonzero"/><path fill="#3d0a09" d="M 97.410156 74.507812 C 95.988281 77.339844 94.625 80.253906 94.972656 83.507812 C 95.316406 86.753906 97.097656 89.628906 98.816406 92.320312 C 99.347656 93.15625 100.679688 92.382812 100.148438 91.542969 C 98.710938 89.289062 97.160156 86.910156 96.644531 84.25 C 96.015625 80.992188 97.3125 78.132812 98.742188 75.289062 C 99.183594 74.402344 97.855469 73.625 97.410156 74.507812 " fill-opacity="1" fill-rule="nonzero"/><path fill="#3d0a09" d="M 127.246094 57.855469 C 127.472656 62.601562 126.75 68.519531 130.148438 72.332031 C 131.652344 74.023438 133.613281 75.214844 135.21875 76.796875 C 137.664062 79.21875 138.71875 82.519531 138.152344 85.910156 C 137.988281 86.878906 139.472656 87.296875 139.636719 86.320312 C 140.488281 81.238281 138.304688 77.246094 134.445312 74.085938 C 132.214844 72.265625 130.066406 70.578125 129.421875 67.609375 C 128.742188 64.496094 128.9375 61.03125 128.785156 57.855469 C 128.738281 56.871094 127.199219 56.863281 127.246094 57.855469 " fill-opacity="1" fill-rule="nonzero"/><path fill="#f7946d" d="M 130.605469 34.925781 C 130.355469 33.703125 132.179688 33.707031 131.703125 32.570312 C 128.96875 26.0625 122.496094 23.277344 115.828125 22.722656 C 115.328125 22.679688 114.910156 22.777344 114.554688 22.945312 C 109.492188 23.015625 106.417969 22.914062 102.519531 26.292969 C 93.109375 34.457031 93.824219 55.832031 97.976562 66.03125 C 100.382812 71.941406 106.035156 73.019531 111.703125 73.34375 C 116.457031 73.621094 121.398438 73.023438 125.609375 69.429688 C 129.964844 65.703125 130.632812 59.707031 131.546875 54.34375 C 132.53125 48.601562 131.773438 40.699219 130.605469 34.925781 " fill-opacity="1" fill-rule="nonzero"/><path fill="#ffffff" d="M 172.144531 117.671875 C 173.226562 114.730469 174.066406 111.703125 174.664062 108.578125 C 174.703125 108.363281 174.664062 108.179688 174.59375 108.015625 C 174.332031 99.933594 168.875 89.710938 162.421875 85.046875 C 162.140625 84.84375 161.867188 84.832031 161.632812 84.925781 C 161.230469 84.644531 160.8125 84.386719 160.355469 84.152344 C 155.007812 81.421875 149.042969 80.222656 143.109375 79.652344 C 140.121094 79.367188 134.402344 78.183594 133.984375 79.566406 C 132.195312 85.5 123.648438 88.75 118.394531 89.855469 C 101.992188 93.3125 97.171875 85.585938 96.378906 85.996094 C 88.542969 90.023438 80.871094 91.273438 74.054688 96.929688 C 72.585938 98.148438 71.171875 99.433594 69.832031 100.792969 C 63.652344 107.078125 62.757812 115.933594 62.257812 124.3125 C 61.902344 124.65625 61.746094 125.25 62.148438 125.738281 C 64.3125 128.363281 66.761719 130.667969 69.585938 132.574219 C 70.730469 133.34375 71.917969 134.03125 73.117188 134.707031 C 73.746094 155 84.292969 205.328125 97.382812 221.476562 C 109.46875 232.609375 153.8125 213.347656 170.09375 195.464844 C 179.085938 185.582031 175.339844 135.726562 172.144531 117.671875 " fill-opacity="1" fill-rule="nonzero"/><path fill="#3d0a09" d="M 95.46875 95.839844 C 107.628906 103.28125 122.539062 100.160156 133.578125 92.199219 C 134.375 91.621094 133.609375 90.289062 132.800781 90.867188 C 122.195312 98.515625 107.964844 101.679688 96.246094 94.511719 C 95.398438 93.988281 94.625 95.320312 95.46875 95.839844 " fill-opacity="1" fill-rule="nonzero"/><path fill="#ff5656" d="M 193.03125 191.417969 C 187.445312 163.964844 180.179688 118.542969 169.582031 92.414062 C 168.6875 90.203125 165.984375 86.542969 163.890625 85.40625 C 153.386719 79.714844 133.015625 77.328125 125.046875 78.550781 C 124.632812 78.613281 123.878906 78.875 123.859375 79.269531 C 122.796875 104.746094 119.121094 129.773438 124.734375 155.011719 C 132.796875 191.234375 156.835938 238.308594 162.832031 240.625 C 164.515625 241.277344 180.066406 233.242188 184.871094 225.097656 C 190.492188 215.578125 195.300781 202.550781 193.03125 191.417969 " fill-opacity="1" fill-rule="nonzero"/><path fill="#560c1b" d="M 138.160156 128.507812 C 135.28125 126.890625 131.496094 129.144531 131.558594 132.453125 C 131.585938 133.960938 132.414062 135.191406 133.566406 135.921875 C 133.753906 136.089844 133.949219 136.246094 134.160156 136.367188 C 135.53125 137.148438 137.199219 137.121094 138.515625 136.230469 C 141.257812 134.367188 141.058594 130.132812 138.160156 128.507812 " fill-opacity="1" fill-rule="nonzero"/><path fill="#560c1b" d="M 139.996094 165.476562 C 140.019531 166.699219 140.691406 167.695312 141.625 168.289062 C 141.773438 168.421875 141.933594 168.546875 142.105469 168.648438 C 144.179688 169.832031 147.089844 168.726562 147.410156 165.050781 C 145.648438 159.757812 139.929688 161.824219 139.996094 165.476562 " fill-opacity="1" fill-rule="nonzero"/><path fill="#ff5656" d="M 76.101562 94.96875 C 75.710938 94.417969 75.921875 93.425781 75.167969 93.875 C 64.835938 100.058594 59.859375 111.886719 55.347656 122.269531 C 50.152344 134.242188 46.027344 146.621094 42.894531 159.285156 C 42.484375 159.503906 47.058594 198.449219 47.269531 198.523438 C 59.171875 202.648438 65.464844 196.019531 69.859375 188.152344 C 75.585938 177.914062 78.832031 167.519531 79.921875 155.84375 C 80.488281 149.785156 80.652344 143.695312 81.117188 137.625 C 81.625 130.910156 82.964844 124.398438 83.980469 117.761719 C 85.152344 110.136719 86.324219 96.480469 76.101562 94.96875 " fill-opacity="1" fill-rule="nonzero"/><path fill="#ff5656" d="M 236.9375 168.433594 C 236.675781 168.179688 236.335938 167.992188 236.183594 168.226562 C 234.742188 167.949219 232.90625 169.628906 232.105469 170.554688 C 230.207031 172.742188 229.222656 175.75 228.414062 178.46875 C 227.371094 181.972656 226.769531 185.613281 226.609375 189.265625 C 226.539062 190.976562 225.289062 195.65625 227.390625 196.695312 C 229.203125 197.589844 231.894531 195.34375 232.894531 194.101562 C 234.816406 191.695312 236.039062 188.539062 236.972656 185.632812 C 238.039062 182.320312 238.636719 178.855469 238.75 175.375 C 238.828125 172.824219 238.894531 170.332031 236.9375 168.433594 " fill-opacity="1" fill-rule="nonzero"/><path fill="#560c1b" d="M 153.730469 199.472656 C 153.753906 200.625 154.386719 201.566406 155.265625 202.125 C 155.410156 202.253906 155.558594 202.371094 155.722656 202.464844 C 158.722656 204.179688 161.960938 200.230469 159.980469 197.554688 C 158.082031 194.996094 153.667969 196.070312 153.730469 199.472656 " fill-opacity="1" fill-rule="nonzero"/><path fill="#ff5656" d="M 218.933594 171.496094 C 219.300781 163.710938 211.265625 159.609375 207.691406 153.03125 C 202.898438 144.199219 198.046875 135.402344 193.136719 126.636719 C 187.855469 117.214844 184.472656 104.539062 178.632812 95.449219 C 173.972656 88.199219 170.167969 85.382812 158.71875 82.527344 C 157.847656 82.3125 158.191406 83.796875 158.140625 84.035156 C 156.171875 93.546875 153.992188 103.039062 152.238281 112.59375 C 150.675781 121.085938 154.589844 135.746094 157.933594 143.445312 C 165.519531 160.921875 186.117188 191.640625 198.390625 188.472656 C 204.53125 186.886719 218.621094 178.175781 218.933594 171.496094 " fill-opacity="1" fill-rule="nonzero"/><path fill="#f7946d" d="M 278.035156 172.066406 C 278.714844 169.976562 277.632812 168.023438 275.332031 167.867188 C 274.214844 167.792969 273.003906 168.058594 271.789062 168.484375 C 271.390625 167.382812 270.308594 166.6875 269.023438 166.5 C 266.425781 166.125 263.898438 167.671875 261.597656 168.636719 C 260.203125 169.226562 258.78125 169.746094 257.34375 170.21875 C 257.679688 169.660156 257.910156 169.035156 257.960938 168.332031 C 258.589844 166.9375 256.976562 164.96875 255.214844 165.789062 C 255.054688 165.839844 254.90625 165.902344 254.765625 165.988281 C 251.75 167.445312 248.242188 167.21875 245.109375 168.34375 C 242.527344 169.273438 240.792969 171.011719 239.324219 173.117188 C 235.554688 172.40625 226.019531 169.972656 225.03125 170.921875 C 220.601562 175.179688 218.996094 181.40625 220.703125 187.289062 C 221.207031 189.011719 232.710938 189.097656 237.046875 189.320312 C 237.15625 189.371094 237.265625 189.417969 237.390625 189.453125 C 244.304688 191.363281 251.75 191.015625 258.453125 188.445312 C 265.03125 185.921875 275.726562 179.175781 278.035156 172.066406 " fill-opacity="1" fill-rule="nonzero"/><path fill="#ff5656" d="M 16.914062 139.558594 C 16.792969 139.222656 16.375 139.066406 16.097656 139.34375 C 14.714844 140.730469 13.632812 142.464844 13.769531 144.492188 C 13.773438 144.585938 13.808594 144.660156 13.847656 144.726562 C 13.828125 145.023438 14.074219 145.359375 14.457031 145.28125 C 15.527344 145.054688 17.003906 144.78125 17.46875 143.632812 C 17.964844 142.402344 17.335938 140.714844 16.914062 139.558594 " fill-opacity="1" fill-rule="nonzero"/><path fill="#f7946d" d="M 30.820312 94.324219 C 27.445312 88.871094 22.691406 98.382812 21.183594 104.5 C 20.863281 105.796875 14.996094 99.324219 7.3125 101.515625 C 3.191406 102.6875 2.960938 107.855469 3.78125 111.5625 C 3.769531 111.570312 3.757812 111.578125 3.746094 111.589844 C 1.691406 113.675781 1.621094 117.042969 2.640625 119.714844 C 2.496094 119.832031 2.355469 119.953125 2.222656 120.089844 C 0.0585938 122.308594 0.546875 127.28125 2.878906 129.203125 C 3.273438 129.53125 3.722656 129.609375 4.128906 129.53125 C 4.265625 129.628906 4.34375 129.6875 4.476562 129.785156 C 4.730469 131.363281 4.765625 132.324219 5.851562 133.539062 C 7.589844 135.488281 9.65625 134.265625 12.101562 134.921875 C 12.160156 134.941406 16.292969 143.953125 17.714844 146.386719 C 18.105469 147.058594 32.722656 138.566406 33.007812 136.875 C 31.402344 134.589844 29.828125 132.277344 28.347656 129.914062 C 27.015625 127.792969 27.558594 124.210938 27.878906 121.796875 C 29.390625 110.296875 28.46875 107.390625 28.632812 105.078125 C 28.894531 101.40625 31.695312 95.734375 30.820312 94.324219 " fill-opacity="1" fill-rule="nonzero"/><path fill="#ff5656" d="M 229.800781 182.382812 C 230.84375 178.984375 233.785156 173.304688 236.859375 169.796875 C 237.394531 169.1875 237.113281 168.226562 236.339844 167.980469 C 224.867188 164.335938 209.167969 159.753906 206.320312 159.234375 C 203.617188 158.742188 200.785156 163.070312 198.109375 164.253906 C 195.214844 165.535156 193.929688 169.511719 192.898438 172.273438 C 191.289062 176.601562 189.054688 185.304688 189.371094 185.597656 C 194.429688 190.257812 206.800781 194.839844 227.457031 197.0625 C 228.210938 197.140625 228.890625 196.550781 228.890625 195.792969 C 228.902344 191.097656 228.476562 186.710938 229.800781 182.382812 " fill-opacity="1" fill-rule="nonzero"/><path fill="#3d0a09" d="M 159.453125 145.398438 C 167.867188 162.738281 177.484375 181.691406 196.167969 189.792969 C 197.070312 190.183594 197.855469 188.855469 196.945312 188.464844 C 178.492188 180.460938 169.09375 161.742188 160.785156 144.621094 C 160.351562 143.730469 159.023438 144.507812 159.453125 145.398438 " fill-opacity="1" fill-rule="nonzero"/><path fill="#ff5656" d="M 105.957031 156.96875 C 104.101562 144.667969 102.050781 132.398438 100.355469 120.078125 C 98.683594 107.902344 99 94.546875 102.238281 82.507812 C 102.382812 81.960938 101.855469 81.484375 101.335938 81.699219 C 98.007812 83.066406 86.707031 87.222656 82.410156 89.539062 C 77.304688 92.289062 72.210938 95.464844 68.15625 99.753906 C 61.910156 106.359375 56.421875 126.144531 54.585938 132.457031 C 54.375 133.191406 54.988281 133.664062 55.578125 133.652344 C 55.78125 134.007812 67.683594 144.800781 68.222656 144.589844 C 68.261719 148.125 66.976562 188.480469 69.035156 217.871094 C 69.351562 222.40625 72.4375 228.648438 75.765625 231.894531 C 80.652344 236.65625 102.171875 242.527344 102.328125 240.675781 C 104.414062 216.144531 109.609375 181.21875 105.957031 156.96875 " fill-opacity="1" fill-rule="nonzero"/><path fill="#ffffff" d="M 295.765625 91.535156 L 133.417969 91.535156 C 131.433594 91.535156 124.476562 92.933594 124.035156 94.878906 L 115.011719 144.90625 C 114.425781 147.480469 116.332031 149.882812 118.960938 149.882812 L 286.511719 149.882812 C 288.5 149.882812 290.25 148.480469 290.691406 146.535156 L 299.710938 96.507812 C 300.300781 93.933594 298.394531 91.535156 295.765625 91.535156 " fill-opacity="1" fill-rule="nonzero"/><g clip-path="url(#41e3c81f89)"><path fill="#e5d3cf" d="M 133.417969 92.390625 C 130.992188 92.390625 125.125 93.945312 124.871094 95.070312 L 115.855469 145.058594 C 115.625 146.074219 115.847656 147.074219 116.460938 147.839844 C 117.0625 148.59375 117.976562 149.027344 118.960938 149.027344 L 286.511719 149.027344 C 288.097656 149.027344 289.503906 147.898438 289.855469 146.347656 L 298.871094 96.359375 C 299.101562 95.34375 298.878906 94.34375 298.265625 93.578125 C 297.664062 92.824219 296.75 92.390625 295.765625 92.390625 Z M 286.511719 150.738281 L 118.960938 150.738281 C 117.453125 150.738281 116.050781 150.070312 115.121094 148.90625 C 114.183594 147.730469 113.839844 146.207031 114.179688 144.71875 L 123.191406 94.730469 C 123.847656 91.835938 132.09375 90.675781 133.417969 90.675781 L 295.765625 90.675781 C 297.273438 90.675781 298.675781 91.347656 299.605469 92.511719 C 300.542969 93.683594 300.886719 95.210938 300.546875 96.699219 L 291.535156 146.6875 C 290.996094 149.050781 288.886719 150.738281 286.511719 150.738281 " fill-opacity="1" fill-rule="nonzero"/></g><path fill="#ff5656" d="M 65.675781 166.371094 C 60.171875 158.917969 57.019531 149.746094 50.589844 143.074219 C 46.980469 139.328125 39.230469 132.765625 33.332031 133.140625 C 32.699219 133.179688 32.101562 132.871094 31.789062 132.320312 C 31.066406 131.066406 29.785156 128.875 28.960938 127.699219 C 28.261719 126.699219 26.910156 127.765625 27.289062 128.785156 C 27.398438 135.347656 20.285156 140.9375 14.511719 143.511719 C 14.054688 143.71875 13.902344 144.109375 13.949219 144.488281 C 13.90625 144.6875 13.914062 144.90625 14.050781 145.144531 C 15.039062 146.855469 16.125 148.496094 17.3125 150.074219 C 17.578125 150.433594 17.941406 150.871094 17.804688 151.296875 C 15.238281 159.195312 21.550781 172.523438 29.34375 184.40625 C 37.644531 197.066406 47.511719 201.257812 60.355469 198.066406 C 61.542969 197.769531 63.179688 189.007812 64.203125 186.167969 C 66.3125 180.289062 66.796875 174.058594 65.769531 167.914062 C 65.753906 167.800781 65.699219 167.722656 65.640625 167.65625 C 65.910156 167.308594 66.007812 166.820312 65.675781 166.371094 " fill-opacity="1" fill-rule="nonzero"/><path fill="#3d0a09" d="M 67.109375 135.867188 C 66.21875 154.007812 66.605469 172.183594 68.265625 190.269531 C 68.355469 191.25 69.894531 191.257812 69.804688 190.269531 C 68.148438 172.183594 67.761719 154.007812 68.648438 135.867188 C 68.695312 134.878906 67.15625 134.878906 67.109375 135.867188 " fill-opacity="1" fill-rule="nonzero"/><path fill="#3d0a09" d="M 212.492188 161.390625 C 207.839844 161.949219 203.714844 164.148438 200.761719 167.800781 C 200.144531 168.5625 201.230469 169.660156 201.851562 168.886719 C 204.53125 165.574219 208.242188 163.441406 212.492188 162.929688 C 213.460938 162.8125 213.476562 161.273438 212.492188 161.390625 " fill-opacity="1" fill-rule="nonzero"/><path fill="#cb5b45" d="M 273.457031 174.917969 C 272.574219 172.949219 269.582031 173.375 267.902344 173.761719 C 264.929688 174.441406 263.074219 176.566406 260.554688 178.054688 C 257.109375 180.09375 253.550781 178.578125 249.914062 178.105469 C 246.671875 177.683594 243.464844 178.15625 240.4375 179.371094 C 239.527344 179.734375 239.925781 181.226562 240.847656 180.855469 C 243.511719 179.785156 246.320312 179.285156 249.191406 179.558594 C 252.015625 179.832031 254.761719 180.9375 257.632812 180.667969 C 259.78125 180.464844 261.476562 179.363281 263.148438 178.082031 C 264.1875 177.285156 265.21875 176.441406 266.421875 175.886719 C 267.457031 175.402344 271.394531 174.0625 272.125 175.695312 C 272.53125 176.597656 273.859375 175.816406 273.457031 174.917969 " fill-opacity="1" fill-rule="nonzero"/><path fill="#3d0a09" d="M 228.257812 189.9375 C 228.15625 191.171875 228.324219 192.394531 228.753906 193.558594 C 229.089844 194.480469 230.582031 194.082031 230.238281 193.148438 C 229.851562 192.101562 229.707031 191.050781 229.800781 189.9375 C 229.882812 188.949219 228.339844 188.953125 228.257812 189.9375 " fill-opacity="1" fill-rule="nonzero"/><path fill="#cb5b45" d="M 6.105469 112.832031 C 9.34375 113.816406 15.734375 115.253906 17.386719 111.019531 C 17.960938 109.542969 17.914062 106.867188 16.9375 105.535156 C 15.792969 103.980469 12.902344 103.917969 11.183594 103.730469 C 10.199219 103.625 10.207031 105.164062 11.183594 105.269531 C 12.832031 105.449219 15.042969 105.53125 15.945312 107.199219 C 16.734375 108.667969 16.027344 111.085938 14.65625 111.816406 C 12.335938 113.046875 8.847656 112.054688 6.515625 111.347656 C 5.5625 111.058594 5.15625 112.542969 6.105469 112.832031 " fill-opacity="1" fill-rule="nonzero"/><path fill="#cb5b45" d="M 4.941406 121.316406 C 7.835938 121.742188 12.847656 122.875 15.199219 120.585938 C 17.15625 118.675781 17.816406 115.246094 16.285156 112.933594 C 15.742188 112.109375 14.40625 112.878906 14.957031 113.710938 C 16.433594 115.945312 15.171875 119.722656 12.410156 120.175781 C 10.164062 120.542969 7.578125 120.160156 5.351562 119.835938 C 4.382812 119.691406 3.960938 121.175781 4.941406 121.316406 " fill-opacity="1" fill-rule="nonzero"/><path fill="#cb5b45" d="M 5.851562 129.683594 C 8.820312 130.058594 12.378906 130.351562 14.683594 128.007812 C 16.832031 125.820312 15.964844 122.699219 14.503906 120.410156 C 13.972656 119.578125 12.636719 120.347656 13.171875 121.1875 C 14.582031 123.394531 15.210938 126.265625 12.464844 127.734375 C 10.46875 128.796875 7.992188 128.414062 5.851562 128.144531 C 4.871094 128.019531 4.878906 129.5625 5.851562 129.683594 " fill-opacity="1" fill-rule="nonzero"/><path fill="#3d0a09" d="M 134.679688 237.898438 C 135.910156 238.359375 137.152344 238.710938 138.453125 238.902344 C 139.613281 239.070312 141.371094 238.871094 142.382812 239.503906 C 143.246094 240.046875 143.96875 241.355469 144.585938 242.136719 C 146.808594 244.949219 148.9375 247.855469 151.339844 250.523438 C 152.003906 251.261719 153.089844 250.167969 152.429688 249.433594 C 149.828125 246.546875 147.550781 243.382812 145.125 240.351562 C 144.550781 239.636719 143.953125 238.652344 143.148438 238.167969 C 142.257812 237.628906 141.007812 237.640625 140.015625 237.527344 C 138.285156 237.332031 136.726562 237.027344 135.089844 236.414062 C 134.160156 236.070312 133.757812 237.558594 134.679688 237.898438 " fill-opacity="1" fill-rule="nonzero"/><path fill="#b5613f" d="M 122.5 39.148438 C 121.746094 39.003906 120.960938 38.976562 120.25 39.128906 C 119.027344 39.390625 117.660156 40.289062 117.730469 41.875 C 117.808594 43.671875 119.15625 43.371094 120.304688 43.292969 C 121.238281 43.226562 122.152344 43.332031 123.058594 43.609375 C 123.796875 43.832031 124.535156 44.195312 125.308594 43.996094 C 125.660156 43.902344 125.925781 43.5625 126.027344 43.1875 C 126.507812 41.414062 125.089844 40.0625 123.742188 39.519531 C 123.355469 39.367188 122.933594 39.238281 122.5 39.148438 " fill-opacity="1" fill-rule="nonzero"/><path fill="#b5613f" d="M 104.558594 38.738281 C 105.308594 38.585938 106.097656 38.558594 106.804688 38.714844 C 108.027344 38.980469 109.398438 39.878906 109.328125 41.46875 C 109.25 43.269531 107.898438 42.96875 106.753906 42.886719 C 105.816406 42.824219 104.90625 42.933594 104 43.207031 C 103.257812 43.433594 102.523438 43.796875 101.75 43.59375 C 101.394531 43.503906 101.128906 43.164062 101.027344 42.785156 C 100.550781 41.003906 101.964844 39.652344 103.316406 39.105469 C 103.703125 38.953125 104.125 38.824219 104.558594 38.738281 " fill-opacity="1" fill-rule="nonzero"/><path fill="#3d0a09" d="M 93.40625 88.351562 C 88.351562 105.78125 91.503906 123.890625 94.1875 141.429688 C 95.640625 150.90625 96.730469 160.371094 96.8125 169.96875 C 96.898438 179.5 96.277344 189.019531 95.578125 198.515625 C 94.789062 209.21875 93.839844 219.90625 92.734375 230.582031 C 92.632812 231.566406 94.175781 231.558594 94.277344 230.582031 C 96.210938 211.871094 98.128906 192.988281 98.347656 174.167969 C 98.453125 165.128906 97.832031 156.175781 96.589844 147.226562 C 95.304688 137.964844 93.570312 128.753906 92.734375 119.433594 C 91.8125 109.15625 92 98.734375 94.890625 88.761719 C 95.167969 87.808594 93.679688 87.398438 93.40625 88.351562 " fill-opacity="1" fill-rule="nonzero"/><path fill="#b5613f" d="M 128.949219 26.3125 C 124.617188 20.824219 118.949219 19.308594 111.722656 20.46875 C 106.707031 21.277344 102.046875 23.488281 98.179688 26.78125 C 96.386719 28.308594 94.761719 30.070312 93.933594 32.308594 C 92.777344 35.445312 93.203125 38.871094 93.632812 42.101562 C 93.640625 42.160156 93.320312 45.058594 93.882812 44.984375 C 99.40625 44.242188 103.601562 39.722656 107.308594 35.785156 C 110.246094 32.667969 112.75 29.175781 114.371094 25.253906 C 114.578125 24.757812 114.859375 24.945312 114.964844 25.46875 C 115.890625 30.074219 117.324219 34.144531 120.253906 37.898438 C 123.289062 41.789062 129.503906 45.730469 134.480469 42.90625 C 134.6875 43.269531 132.53125 30.855469 128.949219 26.3125 " fill-opacity="1" fill-rule="nonzero"/><path fill="#f7946d" d="M 135.953125 44.84375 C 135.453125 43.644531 134.277344 42.816406 132.039062 44.03125 C 131.863281 44.125 131.707031 44.226562 131.546875 44.332031 C 131.484375 44.65625 131.398438 44.980469 131.304688 45.304688 C 131.121094 47.957031 129.9375 50.515625 128.847656 53.089844 C 129.421875 53.613281 130.710938 53.78125 131.660156 53.5 C 134.613281 52.632812 135.410156 49.277344 136.085938 47.511719 C 136.320312 46.894531 136.332031 45.761719 135.953125 44.84375 " fill-opacity="1" fill-rule="nonzero"/><path fill="#f7946d" d="M 95.984375 45.375 C 95.773438 45.21875 95.546875 45.066406 95.296875 44.921875 C 93.003906 43.589844 91.800781 44.496094 91.285156 45.816406 C 90.898438 46.820312 90.910156 48.066406 91.152344 48.742188 C 91.84375 50.683594 92.660156 54.363281 95.6875 55.3125 C 96.386719 55.535156 97.261719 55.5 97.921875 55.253906 C 96.621094 52.011719 95.644531 48.703125 95.984375 45.375 " fill-opacity="1" fill-rule="nonzero"/><path fill="#2e060a" d="M 122.988281 46.519531 C 122.875 45.589844 122.414062 44.277344 121.222656 44.289062 C 117.347656 44.332031 119.441406 51.878906 122.074219 49.632812 C 122.917969 48.910156 123.117188 47.546875 122.988281 46.519531 " fill-opacity="1" fill-rule="nonzero"/><path fill="#2e060a" d="M 107.566406 45.941406 C 107.464844 45.0625 107.046875 43.816406 105.953125 43.832031 C 102.394531 43.886719 104.292969 51.023438 106.714844 48.890625 C 107.492188 48.203125 107.679688 46.910156 107.566406 45.941406 " fill-opacity="1" fill-rule="nonzero"/><path fill="#ffffff" d="M 118.277344 54.695312 C 115.511719 55.082031 112.675781 55.398438 109.902344 54.914062 C 109.476562 54.839844 107.460938 54.652344 108.011719 55.640625 C 109.269531 57.902344 110.660156 58.617188 113.378906 58.433594 C 115.671875 58.277344 117.710938 57.375 118.855469 55.433594 C 119.097656 55.027344 118.71875 54.632812 118.277344 54.695312 " fill-opacity="1" fill-rule="nonzero"/><path fill="#cb5b45" d="M 111.007812 46.757812 C 108.34375 48.453125 109.523438 51.726562 111.667969 53.25 C 112.476562 53.820312 113.25 52.488281 112.445312 51.917969 C 111.269531 51.085938 110.175781 49.113281 111.789062 48.089844 C 112.621094 47.558594 111.847656 46.222656 111.007812 46.757812 " fill-opacity="1" fill-rule="nonzero"/><path fill="#cb5b45" d="M 114.742188 51.523438 C 115.125 51.644531 115.464844 51.820312 115.792969 52.050781 C 116.132812 52.289062 116.648438 52.113281 116.847656 51.773438 C 117.074219 51.390625 116.910156 50.960938 116.570312 50.722656 C 116.136719 50.417969 115.65625 50.195312 115.152344 50.039062 C 114.199219 49.753906 113.792969 51.238281 114.742188 51.523438 " fill-opacity="1" fill-rule="nonzero"/><path fill="#cb5b45" d="M 131.425781 45.367188 C 131.082031 47.101562 130.613281 48.796875 130.027344 50.464844 C 129.695312 51.398438 131.183594 51.804688 131.511719 50.875 C 132.101562 49.207031 132.566406 47.511719 132.910156 45.777344 C 133.101562 44.8125 131.617188 44.398438 131.425781 45.367188 " fill-opacity="1" fill-rule="nonzero"/><path fill="#cb5b45" d="M 94.800781 46.878906 C 94.945312 48.757812 95.246094 50.601562 95.71875 52.425781 C 95.964844 53.382812 97.453125 52.976562 97.203125 52.015625 C 96.765625 50.328125 96.476562 48.621094 96.34375 46.878906 C 96.269531 45.898438 94.726562 45.886719 94.800781 46.878906 " fill-opacity="1" fill-rule="nonzero"/><path fill="#3d0a09" d="M 123.46875 25.484375 C 129.683594 28.78125 131.964844 35.628906 133.925781 41.929688 C 134.21875 42.871094 135.707031 42.46875 135.414062 41.519531 C 133.332031 34.832031 130.828125 27.648438 124.25 24.15625 C 123.371094 23.691406 122.59375 25.019531 123.46875 25.484375 " fill-opacity="1" fill-rule="nonzero"/><path fill="#3d0a09" d="M 94.9375 30.859375 C 92.96875 34.863281 92.207031 39.179688 92.769531 43.613281 C 92.894531 44.582031 94.4375 44.59375 94.3125 43.613281 C 93.785156 39.449219 94.414062 35.410156 96.269531 31.636719 C 96.707031 30.75 95.375 29.96875 94.9375 30.859375 " fill-opacity="1" fill-rule="nonzero"/><path fill="#cb5b45" d="M 123.453125 70.070312 C 117.792969 73.496094 111.332031 74.023438 105.175781 71.621094 C 104.25 71.257812 103.851562 72.746094 104.765625 73.105469 C 111.292969 75.652344 118.242188 75.027344 124.230469 71.398438 C 125.078125 70.886719 124.304688 69.554688 123.453125 70.070312 " fill-opacity="1" fill-rule="nonzero"/><path fill="#3d0a09" d="M 30.480469 134.628906 C 29.25 139.949219 26.511719 145.46875 20.574219 146.425781 C 19.597656 146.585938 20.011719 148.070312 20.984375 147.914062 C 27.433594 146.871094 30.625 140.847656 31.964844 135.039062 C 32.1875 134.074219 30.703125 133.664062 30.480469 134.628906 " fill-opacity="1" fill-rule="nonzero"/><path fill="#3d0a09" d="M 49.664062 143.429688 C 53.660156 146.355469 56.75 150.277344 58.644531 154.851562 C 59.019531 155.753906 60.511719 155.359375 60.132812 154.445312 C 58.066406 149.460938 54.800781 145.289062 50.441406 142.101562 C 49.640625 141.515625 48.871094 142.851562 49.664062 143.429688 " fill-opacity="1" fill-rule="nonzero"/><path fill="#ffc070" d="M 160.976562 117.625 C 162.050781 116.199219 161.105469 115.054688 158.949219 114.765625 C 158.402344 114.695312 155.730469 114.386719 154.851562 114.277344 C 154.617188 114.246094 154.421875 114.101562 154.332031 113.886719 C 153.613281 112.101562 152.890625 108.542969 151.101562 108.792969 C 149.722656 108.988281 147.925781 112.0625 146.753906 113.621094 C 146.632812 113.785156 146.441406 113.875 146.238281 113.875 C 144.445312 113.898438 140.722656 114.226562 140.488281 114.574219 C 140.007812 114.800781 139.640625 115.203125 139.484375 115.773438 C 139.253906 116.621094 139.574219 117.410156 139.949219 118.15625 C 140.324219 118.902344 141.105469 119.777344 141.828125 120.488281 C 142.25 120.90625 142.34375 121.554688 142.050781 122.074219 C 141.105469 123.777344 140.214844 125.417969 139.347656 127.191406 C 138.71875 128.476562 139.359375 129.457031 140.417969 129.394531 C 140.683594 129.492188 140.988281 129.523438 141.332031 129.4375 C 143.898438 128.820312 146.488281 127.898438 148.964844 126.699219 C 149.15625 126.609375 149.378906 126.617188 149.5625 126.722656 C 151.515625 127.855469 153.578125 128.84375 155.65625 129.792969 C 156.558594 130.203125 157.402344 129.757812 157.8125 129.097656 C 158.234375 128.753906 158.5 128.214844 158.371094 127.539062 C 158 125.617188 157.570312 123.683594 157.0625 121.773438 C 157.003906 121.542969 157.074219 121.296875 157.25 121.136719 C 158.441406 120.042969 160.023438 118.890625 160.976562 117.625 " fill-opacity="1" fill-rule="nonzero"/><path fill="#ffc070" d="M 187.574219 117.625 C 188.648438 116.199219 187.707031 115.054688 185.546875 114.765625 C 185 114.695312 182.328125 114.386719 181.449219 114.277344 C 181.21875 114.246094 181.019531 114.101562 180.933594 113.886719 C 180.210938 112.101562 179.488281 108.542969 177.699219 108.792969 C 176.320312 108.988281 174.523438 112.0625 173.351562 113.621094 C 173.230469 113.785156 173.039062 113.875 172.835938 113.875 C 171.046875 113.898438 167.320312 114.226562 167.085938 114.574219 C 166.605469 114.800781 166.238281 115.203125 166.082031 115.773438 C 165.851562 116.621094 166.171875 117.410156 166.546875 118.15625 C 166.921875 118.902344 167.707031 119.777344 168.425781 120.488281 C 168.847656 120.90625 168.941406 121.554688 168.652344 122.074219 C 167.703125 123.777344 166.8125 125.417969 165.945312 127.191406 C 165.316406 128.476562 165.957031 129.457031 167.015625 129.394531 C 167.28125 129.492188 167.585938 129.523438 167.929688 129.4375 C 170.496094 128.820312 173.085938 127.898438 175.5625 126.699219 C 175.753906 126.609375 175.976562 126.617188 176.160156 126.722656 C 178.113281 127.855469 180.175781 128.84375 182.253906 129.792969 C 183.15625 130.203125 184 129.757812 184.410156 129.097656 C 184.832031 128.753906 185.101562 128.214844 184.96875 127.539062 C 184.597656 125.617188 184.167969 123.683594 183.664062 121.773438 C 183.601562 121.542969 183.675781 121.296875 183.851562 121.136719 C 185.039062 120.042969 186.621094 118.890625 187.574219 117.625 " fill-opacity="1" fill-rule="nonzero"/><path fill="#ffc070" d="M 214.171875 117.625 C 215.242188 116.199219 214.300781 115.054688 212.144531 114.765625 C 211.59375 114.695312 208.921875 114.386719 208.042969 114.277344 C 207.8125 114.246094 207.613281 114.101562 207.527344 113.886719 C 206.808594 112.101562 206.082031 108.542969 204.292969 108.792969 C 202.917969 108.988281 201.121094 112.0625 199.949219 113.621094 C 199.828125 113.785156 199.636719 113.875 199.429688 113.875 C 197.640625 113.898438 193.917969 114.226562 193.683594 114.574219 C 193.203125 114.800781 192.832031 115.203125 192.675781 115.773438 C 192.445312 116.621094 192.765625 117.410156 193.140625 118.15625 C 193.515625 118.902344 194.300781 119.777344 195.019531 120.488281 C 195.445312 120.90625 195.535156 121.554688 195.246094 122.074219 C 194.300781 123.777344 193.410156 125.417969 192.539062 127.191406 C 191.914062 128.476562 192.554688 129.457031 193.609375 129.394531 C 193.875 129.492188 194.183594 129.523438 194.527344 129.4375 C 197.089844 128.820312 199.679688 127.898438 202.15625 126.699219 C 202.351562 126.609375 202.574219 126.617188 202.757812 126.722656 C 204.710938 127.855469 206.773438 128.84375 208.851562 129.792969 C 209.75 130.203125 210.597656 129.757812 211.007812 129.097656 C 211.425781 128.753906 211.695312 128.214844 211.5625 127.539062 C 211.191406 125.617188 210.761719 123.683594 210.257812 121.773438 C 210.199219 121.542969 210.269531 121.296875 210.445312 121.136719 C 211.636719 120.042969 213.214844 118.890625 214.171875 117.625 " fill-opacity="1" fill-rule="nonzero"/><path fill="#ffc070" d="M 242.078125 117.625 C 243.152344 116.199219 242.207031 115.054688 240.050781 114.765625 C 239.503906 114.695312 236.832031 114.386719 235.953125 114.277344 C 235.722656 114.246094 235.519531 114.101562 235.433594 113.886719 C 234.714844 112.101562 233.992188 108.542969 232.203125 108.792969 C 230.824219 108.988281 229.027344 112.0625 227.855469 113.621094 C 227.734375 113.785156 227.542969 113.875 227.335938 113.875 C 225.550781 113.898438 221.824219 114.226562 221.589844 114.574219 C 221.109375 114.800781 220.742188 115.203125 220.585938 115.773438 C 220.351562 116.621094 220.675781 117.410156 221.050781 118.15625 C 221.425781 118.902344 222.207031 119.777344 222.929688 120.488281 C 223.351562 120.90625 223.445312 121.554688 223.15625 122.074219 C 222.207031 123.777344 221.316406 125.417969 220.449219 127.191406 C 219.820312 128.476562 220.460938 129.457031 221.519531 129.394531 C 221.785156 129.492188 222.089844 129.523438 222.433594 129.4375 C 225 128.820312 227.589844 127.898438 230.066406 126.699219 C 230.257812 126.609375 230.480469 126.617188 230.667969 126.722656 C 232.617188 127.855469 234.679688 128.84375 236.757812 129.792969 C 237.660156 130.203125 238.503906 129.757812 238.914062 129.097656 C 239.335938 128.753906 239.605469 128.214844 239.472656 127.539062 C 239.097656 125.617188 238.671875 123.683594 238.164062 121.773438 C 238.105469 121.542969 238.179688 121.296875 238.355469 121.136719 C 239.542969 120.042969 241.125 118.890625 242.078125 117.625 " fill-opacity="1" fill-rule="nonzero"/><path fill="#ffc070" d="M 269.90625 117.625 C 270.980469 116.199219 270.039062 115.054688 267.878906 114.765625 C 267.332031 114.695312 264.660156 114.386719 263.78125 114.277344 C 263.550781 114.246094 263.351562 114.101562 263.265625 113.886719 C 262.542969 112.101562 261.820312 108.542969 260.03125 108.792969 C 258.652344 108.988281 256.855469 112.0625 255.683594 113.621094 C 255.5625 113.785156 255.371094 113.875 255.167969 113.875 C 253.378906 113.898438 249.652344 114.226562 249.417969 114.574219 C 248.941406 114.800781 248.570312 115.203125 248.414062 115.773438 C 248.183594 116.621094 248.503906 117.410156 248.878906 118.15625 C 249.253906 118.902344 250.039062 119.777344 250.757812 120.488281 C 251.179688 120.90625 251.273438 121.554688 250.984375 122.074219 C 250.035156 123.777344 249.148438 125.417969 248.277344 127.191406 C 247.648438 128.476562 248.289062 129.457031 249.347656 129.394531 C 249.613281 129.492188 249.917969 129.523438 250.261719 129.4375 C 252.828125 128.820312 255.417969 127.898438 257.894531 126.699219 C 258.085938 126.609375 258.308594 126.617188 258.496094 126.722656 C 260.449219 127.855469 262.507812 128.84375 264.585938 129.792969 C 265.488281 130.203125 266.332031 129.757812 266.742188 129.097656 C 267.164062 128.753906 267.433594 128.214844 267.300781 127.539062 C 266.929688 125.617188 266.5 123.683594 265.996094 121.773438 C 265.933594 121.542969 266.007812 121.296875 266.183594 121.136719 C 267.371094 120.042969 268.957031 118.890625 269.90625 117.625 " fill-opacity="1" fill-rule="nonzero"/><path fill="#cb5b45" d="M 13.621094 129.320312 C 14.707031 130.492188 14.382812 132.765625 12.929688 133.445312 C 12.035156 133.867188 12.816406 135.195312 13.707031 134.777344 C 16.09375 133.660156 16.414062 130.070312 14.710938 128.230469 C 14.039062 127.5 12.949219 128.589844 13.621094 129.320312 " fill-opacity="1" fill-rule="nonzero"/></svg>